<?xml version="1.0" standalone="no"?>
<!DOCTYPE svg PUBLIC "-//W3C//DTD SVG 1.1//EN" "http://www.w3.org/Graphics/SVG/1.1/DTD/svg11.dtd" >
<!--
2013-9-30: Created.
-->
<svg>
<metadata>
Created by iconfont
</metadata>
<defs>

<font id="iconfont" horiz-adv-x="1024" >
  <font-face
    font-family="iconfont"
    font-weight="500"
    font-stretch="normal"
    units-per-em="1024"
    ascent="896"
    descent="-128"
  />
    <missing-glyph />
    
    <glyph glyph-name="feiji" unicode="&#58880;" d="M663.1552-76.7168l-231.1872 173.3888 318.5152 437.9776-410.2144-369.2032L139.1104 316.3008 837.824 621.9968 663.1552-76.7168zM313.8048-76.7168V97.952l131.0016-87.3216L313.8048-76.7168z"  horiz-adv-x="1024" />

    
    <glyph glyph-name="aite" unicode="&#59307;" d="M911.365198 391.55814c-42.802852-170.44495-197.642382-222.041072-239.821017-222.041072-0.38374 0-0.751107 0-1.087774 0-25.775037 0.591471-46.176692 9.91379-59.175751 26.989701-10.505261 13.68672-20.61041 39.045271-9.577123 81.848123 3.021823 11.464099 14.854313 18.339694 26.270317 15.397688 11.512195-2.89391 18.515702-14.646582 15.541975-26.094308-5.29254-20.449751-4.541433-36.519752 2.046612-45.201481 6.043646-7.946996 17.379832-9.865695 25.854854-9.993608 0.207731-0.079818 0.463558-0.079818 0.719384-0.079818 32.905434 0 161.378457 46.080501 197.386556 189.535751 34.089399 135.604444-53.419653 253.924223-149.163251 306.480206-8.985652 4.956895-222.233454 118.687146-432.5546-55.323003-81.592296-67.538209-134.021389-177.080068-140.272767-293.081035-5.212722-97.293907 22.833031-184.882777 77.020164-240.413512 152.520719-156.421562 478.507188-110.500697 594.60537 0.207731 8.601912 8.154727 22.240537 7.898901 30.5549-0.704035 8.234545-8.522094 7.898901-22.128997-0.704035-30.299073-70.687946-67.3622-206.260667-112.995517-342.951863-112.995517-116.352985 0-233.617735 33.081443-312.444035 113.907283-62.533218 64.084551-94.976118 163.42507-89.107457 272.551466 6.843872 127.768989 65.011666 248.807692 155.670455 323.812967 232.69062 192.525851 471.0084 65.347311 481.002009 59.895135C850.894965 685.694203 950.954869 549.067476 911.365198 391.55814L911.365198 391.55814zM668.44254 300.387697c-49.326429-79.274508-134.021389-130.567731-215.821417-130.567731-30.426987 0-58.760289 6.92369-84.198657 20.61041-40.628326 21.825075-69.968561 59.799968-82.552158 106.775862-16.372899 61.110823-3.741207 131.494846 34.536584 193.10095 38.917358 62.549591 129.863696 129.032772 221.913159 129.032772 28.285207 0 54.602595-6.427386 78.106916-19.059078 45.665039-24.559349 75.005274-59.767222 86.9974-104.601336C731.055576 407.499204 679.107437 317.511703 668.44254 300.387697L668.44254 300.387697zM665.756361 484.646258c-8.809643 32.905434-31.019481 59.144028-65.858964 77.899184-17.124006 9.193383-36.471656 13.894452-57.577347 13.894452-73.661673 0-151.977343-55.274908-185.218422-108.709911-32.122605-51.628868-42.899042-109.717867-29.547966-159.491481 9.609869-35.975353 30.891568-63.717184 61.398372-80.121805 19.010983-10.201339 40.500413-15.397688 63.669088-15.397688 67.202565 0 137.50677 43.266409 179.174776 110.213147C656.689868 363.048829 680.529833 429.404096 665.756361 484.646258L665.756361 484.646258z"  horiz-adv-x="1024" />

    
    <glyph glyph-name="iconset0243" unicode="&#59022;" d="M682.666667 384c-23.466667 0-42.666667-19.2-42.666667-42.666667 0-23.466667 19.2-42.666667 42.666667-42.666667s42.666667 19.2 42.666667 42.666667C725.333333 364.8 706.133333 384 682.666667 384zM426.666667 298.666667c-46.933333 0-85.333333-38.4-85.333333-85.333333 0-46.933333 38.4-85.333333 85.333333-85.333333s85.333333 38.4 85.333333 85.333333C512 260.266667 473.6 298.666667 426.666667 298.666667zM426.666667 170.666667c-23.466667 0-42.666667 19.2-42.666667 42.666667s19.2 42.666667 42.666667 42.666667 42.666667-19.2 42.666667-42.666667S450.133333 170.666667 426.666667 170.666667zM682.666667 256c-12.8 0-21.333333-8.533333-21.333333-21.333333 0-12.8 8.533333-21.333333 21.333333-21.333333s21.333333 8.533333 21.333333 21.333333C704 247.466667 695.466667 256 682.666667 256zM426.666667 384c-93.866667 0-170.666667-76.8-170.666667-170.666667 0-93.866667 76.8-170.666667 170.666667-170.666667 93.866667 0 170.666667 76.8 170.666667 170.666667C597.333333 307.2 520.533333 384 426.666667 384zM426.666667 85.333333c-70.4 0-128 57.6-128 128 0 70.4 57.6 128 128 128 70.4 0 128-57.6 128-128C554.666667 142.933333 497.066667 85.333333 426.666667 85.333333zM874.666667 533.333333c0 12.8-8.533333 21.333333-21.333333 21.333333s-21.333333-8.533333-21.333333-21.333333c0-12.8 8.533333-21.333333 21.333333-21.333333S874.666667 520.533333 874.666667 533.333333zM896 768l-85.333333 0c-64 0-64 85.333333-149.333333 85.333333-42.666667 0-59.733333 0-64 0 0 0-2.133333 0-2.133333 0-6.4 0-23.466667 0-61.866667 0-85.333333 0-85.333333-85.333333-149.333333-85.333333l-85.333333 0c-46.933333 0-85.333333-38.4-85.333333-85.333333l0-170.666667c8.533333 0 12.8 4.266667 29.866667 23.466667 4.266667 4.266667 8.533333 8.533333 12.8 12.8L256 682.666667c0 23.466667 19.2 42.666667 42.666667 42.666667l85.333333 0c85.333333 0 85.333333 85.333333 149.333333 85.333333 42.666667 0 64 0 64 0s21.333333 0 64 0c64 0 64-85.333333 149.333333-85.333333l85.333333 0c23.466667 0 42.666667-19.2 42.666667-42.666667l0-384c0-23.466667-19.2-42.666667-42.666667-42.666667l-42.666667 0 0-42.666667 42.666667 0c46.933333 0 85.333333 38.4 85.333333 85.333333L981.333333 682.666667C981.333333 729.6 942.933333 768 896 768zM896 640c0 23.466667-19.2 42.666667-42.666667 42.666667s-42.666667-19.2-42.666667-42.666667 19.2-42.666667 42.666667-42.666667S896 616.533333 896 640zM725.333333 469.333333l-85.333333 0c-64 0-64 85.333333-149.333333 85.333333-42.666667 0-59.733333 0-64 0 0 0-2.133333 0-2.133333 0-6.4 0-23.466667 0-61.866667 0-85.333333 0-85.333333-85.333333-149.333333-85.333333L128 469.333333c-46.933333 0-85.333333-38.4-85.333333-85.333333l0-384c0-46.933333 38.4-85.333333 85.333333-85.333333l597.333333 0c46.933333 0 85.333333 38.4 85.333333 85.333333L810.666667 384C810.666667 430.933333 772.266667 469.333333 725.333333 469.333333zM768 0c0-23.466667-19.2-42.666667-42.666667-42.666667L128-42.666667c-23.466667 0-42.666667 19.2-42.666667 42.666667L85.333333 384c0 23.466667 19.2 42.666667 42.666667 42.666667l85.333333 0c85.333333 0 85.333333 85.333333 149.333333 85.333333 42.666667 0 64 0 64 0s21.333333 0 64 0c64 0 64-85.333333 149.333333-85.333333l85.333333 0c23.466667 0 42.666667-19.2 42.666667-42.666667L768 0zM725.333333 512c14.933333 0 29.866667-2.133333 42.666667-8.533333 0 2.133333 0 4.266667 0 8.533333 0 93.866667-76.8 170.666667-170.666667 170.666667-64 0-117.333333-34.133333-147.2-85.333333L490.666667 597.333333c4.266667 0 8.533333 0 10.666667 0 23.466667 25.6 57.6 42.666667 96 42.666667C667.733333 640 725.333333 582.4 725.333333 512zM552.533333 584.533333c17.066667-8.533333 29.866667-19.2 40.533333-29.866667 2.133333 0 4.266667 0 4.266667 0 23.466667 0 42.666667-19.2 42.666667-42.666667l42.666667 0c0 46.933333-38.4 85.333333-85.333333 85.333333C580.266667 597.333333 565.333333 593.066667 552.533333 584.533333z"  horiz-adv-x="1024" />

    
    <glyph glyph-name="tupian" unicode="&#59007;" d="M841.71335 830.709995 182.285626 830.709995c-64.511269 0-116.995621-52.484352-116.995621-116.995621L65.290005 54.28665c0-64.511269 52.484352-116.995621 116.995621-116.995621l659.427724 0c64.511269 0 116.995621 52.484352 116.995621 116.995621L958.708971 713.714374C958.708971 778.225643 906.225643 830.709995 841.71335 830.709995zM182.285626 788.166039l659.427724 0c41.051975 0 74.451666-33.398668 74.451666-74.451666l0-136.557142c-150.09446-5.26184-290.370297-66.084091-396.978337-172.692131-49.960879-49.961902-89.841168-107.331517-118.694309-169.625282-83.496669 70.835302-204.372667 75.376735-292.65841 13.617136L107.833961 713.714374C107.833961 754.767372 141.232628 788.166039 182.285626 788.166039zM107.833961 54.28665 107.833961 193.372382c76.54228 74.311473 198.833511 74.234725 275.272437-0.24457-24.303522-65.298192-37.026288-135.112234-37.026288-206.91149 0-2.223644 0.343831-4.366448 0.977257-6.381337L182.285626-20.165016C141.232628-20.165016 107.833961 13.233652 107.833961 54.28665zM841.71335-20.165016 387.646807-20.165016c0.633427 2.01489 0.977257 4.157693 0.977257 6.381337 0 146.71755 57.053414 284.572244 160.647817 388.166647 98.570993 98.570993 228.166583 154.963351 366.894158 160.204725L916.166039 54.28665C916.165016 13.233652 882.766348-20.165016 841.71335-20.165016zM312.397986 482.541317c60.8376 0 110.332874 49.494251 110.332874 110.332874s-49.494251 110.332874-110.332874 110.332874-110.332874-49.494251-110.332874-110.332874S251.559363 482.541317 312.397986 482.541317zM312.397986 660.662087c37.378306 0 67.788919-30.40959 67.788919-67.788919s-30.40959-67.788919-67.788919-67.788919-67.788919 30.40959-67.788919 67.788919S275.018657 660.662087 312.397986 660.662087z"  horiz-adv-x="1024" />

    
    <glyph glyph-name="xiala" unicode="&#59065;" d="M512.726547 220.681354c-8.063653 0-15.790638 3.245927-21.435195 9.006118L231.175103 495.093191c-11.603269 11.837606-11.410887 30.840402 0.427742 42.442648 11.837606 11.601222 30.841426 11.410887 42.442648-0.427742l238.681054-243.534596L751.407602 537.108097c11.601222 11.839653 30.602995 12.033058 42.442648 0.427742 11.839653-11.603269 12.031011-30.605042 0.427742-42.442648L534.161742 229.687472C528.517185 223.927281 520.791224 220.681354 512.726547 220.681354z"  horiz-adv-x="1024" />

    
    <glyph glyph-name="guanbi" unicode="&#58896;" d="M513.016143 392.354272c-115.797329 0-210.006991 98.632391-210.006991 219.85529S397.219837 832.038246 513.016143 832.038246c115.809609 0 210.020294-98.605785 210.020294-219.828684S628.826775 392.354272 513.016143 392.354272zM513.016143 805.325861c-101.07093 0-183.294606-86.632079-183.294606-193.116299 0-106.509802 82.223676-193.142905 183.294606-193.142905s183.307909 86.632079 183.307909 193.142905C696.324052 718.692758 614.088096 805.325861 513.016143 805.325861zM513.016143-46.807816 286.874683-46.807816c-131.957381 0-219.841987 13.642718-219.841987 80.214926 0 140.91745 190.729949 298.504558 445.983447 298.504558 255.266801 0 445.99675-156.543336 445.99675-296.522414 0-65.763796-87.805812-80.423681-219.658815-82.198094L513.016143-46.80884zM513.016143 305.200306c-236.119719 0-419.271062-146.108682-419.271062-271.792173 0-24.912389 21.951965-53.502541 193.129602-53.502541l452.296223 0c170.160471 2.295276 193.129602 29.320793 193.129602 55.485709C932.300508 160.160979 749.149165 305.200306 513.016143 305.200306zM729.341027-88.377584"  horiz-adv-x="1024" />

    
    <glyph glyph-name="shizi01" unicode="&#58966;" d="M64.164369 340.063325 64.164369 429.533033l894.496507 0 0-89.469708L64.164369 340.063325 64.164369 340.063325zM466.676745-62.450075 466.676745 832.046433l89.469708 0 0-894.497531L466.676745-62.451098 466.676745-62.450075z"  horiz-adv-x="1024" />

    
    <glyph glyph-name="xinxi" unicode="&#58925;" d="M936.936085 703.970452c12.779048 0 23.575952-10.796904 23.575952-23.576975l0-591.863932c0-12.779048-10.796904-23.575952-23.575952-23.575952L87.020936 64.953593c-12.780071 0-23.576975 10.796904-23.576975 23.575952L63.443961 680.393477c0 12.780071 10.796904 23.576975 23.576975 23.576975L936.936085 703.970452M936.936085 767.415436 87.020936 767.415436c-47.862078 0-87.021959-39.159882-87.021959-87.021959l0-591.863932c0-47.861054 39.159882-87.020936 87.021959-87.020936l849.91515 0c47.861054 0 87.020936 39.159882 87.020936 87.020936L1023.957021 680.393477C1023.957021 728.255555 984.798163 767.415436 936.936085 767.415436L936.936085 767.415436zM533.096481 215.172897c-11.609409-10.942213-30.610158-10.94733-42.224684-0.010233L148.414191 537.664775c-11.614525 10.937097-12.168134 29.389354-1.231037 41.003879l3.723811 3.953032c10.937097 11.614525 29.389354 12.168134 41.003879 1.231037l298.940486-281.520745c11.614525-10.937097 30.615275-10.933003 42.224684 0.010233l298.626331 281.491069c11.609409 10.943236 30.061666 10.397814 41.003879-1.211595l3.725858-3.952009c10.942213-11.609409 10.397814-30.060643-1.211595-41.003879L533.096481 215.172897zM255.406994 211.952552c-11.416004-11.144828-29.874401-10.92277-41.019229 0.49221l-3.794419 3.88754c-11.144828 11.414981-10.92277 29.874401 0.493234 41.019229l132.700301 129.547495c11.416004 11.144828 29.874401 10.92277 41.019229-0.493234l3.793396-3.885494c11.144828-11.416004 10.92277-29.875424-0.493234-41.019229L255.406994 211.952552zM807.16858 212.458065c-11.218506-11.343349-29.677926-11.44568-41.021276-0.226151L635.43631 341.509257c-11.343349 11.219529-11.44568 29.67895-0.227174 41.022299l3.818979 3.860934c11.218506 11.343349 29.677926 11.44568 41.021276 0.226151L810.760384 257.341299c11.343349-11.219529 11.44568-29.67895 0.227174-41.022299L807.16858 212.458065z"  horiz-adv-x="1040" />

    
    <glyph glyph-name="tongzhi" unicode="&#58951;" d="M560.633139 733.522512c-13.901615 6.832615-28.731368 5.465478-40.683585-3.756557-43.651173-33.68417-158.526503-135.171586-177.839361-152.270009L195.421296 577.495946c-35.741016 0-64.817238-29.077246-64.817238-64.817238l0-233.125525c0-35.741016 29.077246-64.819285 64.817238-64.819285l125.750005 0c25.904996-23.344684 150.011572-134.904503 198.567451-173.373653 6.955412-5.506411 14.926968-8.299013 23.14514-8.299013 5.77247 0 11.664667 1.37737 17.414625 4.158716 20.770046 10.047844 37.668924 38.889729 37.668924 64.293305l0 567.93494C597.967442 694.661436 581.21899 723.405083 560.633139 733.522512zM554.754245 101.512231c0-8.772804-6.611581-19.756973-11.158131-23.908526-54.496172 43.753503-196.608843 172.035168-198.065008 173.350117-0.00921 0.00921-0.020466 0.01535-0.029676 0.023536-3.946892 4.27435-9.581216 6.967692-15.858176 6.967692L195.421296 257.945049c-11.913331 0-21.606087 9.692756-21.606087 21.606087L173.815209 512.677685c0 11.913331 9.692756 21.606087 21.606087 21.606087l150.566204 0c4.353145 0 8.399297 1.299599 11.790534 3.514033 3.737114 0.690732 7.343245 2.350534 10.393721 5.056156 1.295506 1.14815 127.486556 112.995517 175.377286 150.524249 4.524037-4.041036 11.20418-15.081487 11.20418-23.930015L554.753221 101.512231zM799.893384 383.352247c-5.564739 85.614913-69.287039 140.719952-71.996754 143.023414-9.089006 7.728008-22.725584 6.625908-30.455639-2.466168-7.729032-9.091052-6.625908-22.726607 2.466168-30.455639 0.523933-0.446162 52.474119-45.350884 56.865125-112.904443 2.917446-44.875047-16.032138-90.163509-56.319703-134.607744-8.013511-8.841366-7.344269-22.50455 1.497097-30.519084 4.137227-3.749394 9.328459-5.598508 14.504342-5.598508 5.886057 0 11.750625 2.391467 16.014742 7.095605C780.913101 270.361847 803.597753 326.358185 799.893384 383.352247zM916.536988 487.688547c-33.194006 93.424786-95.514377 149.890822-98.150414 152.24852-8.894577 7.953136-22.552645 7.192819-30.507828-1.702782-7.954159-8.894577-7.191796-22.553669 1.701758-30.507828 0.563842-0.50449 56.69628-51.358715 86.238107-134.505413 17.195637-48.393173 21.87931-97.969289 13.923104-147.354046-10.06217-62.458517-40.516786-125.211746-90.517573-186.518021-7.541767-9.246595-6.15928-22.857591 3.088338-30.399357 4.01136-3.270487 8.841366-4.862751 13.642718-4.862751 6.26775 0 12.485359 2.714831 16.756639 7.951089 54.864562 67.26908 88.406492 136.89995 99.692536 206.956515C941.527149 375.623215 936.18856 432.37987 916.536988 487.688547z"  horiz-adv-x="1024" />

    
    <glyph glyph-name="caidanshouye" unicode="&#58899;" d="M880.981333-42.666667l-215.466667 0c-31.808 0-57.685333 26.304-57.685333 58.666667l0 187.093333c0 11.626667-9.301333 21.077333-20.736 21.077333l-151.530667 0c-11.434667 0-20.757333-9.472-20.757333-21.077333l0-187.093333c0-32.362667-25.877333-58.666667-57.685333-58.666667L143.018667-42.666667C111.210667-42.666667 85.333333-16.362667 85.333333 16L85.333333 450.432c0 27.562667 16.874667 62.272 38.442667 78.997333l345.173333 267.818667c22.997333 17.856 61.76 17.877333 84.8 0.064l346.410667-267.925333C921.770667 512.704 938.666667 478.016 938.666667 450.432L938.666667 16C938.666667-16.362667 912.789333-42.666667 880.981333-42.666667zM435.562667 261.76l151.530667 0c31.808 0 57.685333-26.304 57.685333-58.666667l0-187.093333c0-11.626667 9.301333-21.077333 20.736-21.077333l215.466667 0c11.413333 0 20.736 9.472 20.736 21.077333L901.717333 450.432c0 16-11.392 39.36-23.914667 49.024L531.370667 767.402667c-10.069333 7.744-29.930667 7.765333-40-0.021333L146.176 499.541333c-12.501333-9.706667-23.893333-33.130667-23.893333-49.130667L122.282667 16c0-11.626667 9.301333-21.077333 20.736-21.077333l214.122667 0c11.413333 0 20.736 9.472 20.736 21.077333l0 187.093333C377.856 235.456 403.733333 261.76 435.562667 261.76z"  horiz-adv-x="1024" />

    
    <glyph glyph-name="weibo-copy" unicode="&#58881;" d="M449.324 211.27999999999997c-94.588-4.429-171.046 43.008-171.046 106.118 0 63.181 76.458 113.861 171.046 118.229 94.638 4.357 171.257-34.642 171.257-97.705 0-63.116-76.619-122.355-171.257-126.642M650.723 416.332c-22.478 4.358-11.55 16.454-11.55 16.454s21.977 36.235-4.357 62.569c-32.636 32.626-111.928-4.155-111.928-4.155-30.288-9.394-22.271 4.297-17.989 27.585 0 27.438-9.394 73.903-90.087 46.46-80.588-27.579-149.793-124.243-149.793-124.243-48.133-64.208-41.751-113.841-41.751-113.841 12.005-109.589 128.438-139.664 218.996-146.786 95.286-7.471 223.862 32.843 262.865 115.658 38.988 82.972-31.871 115.8-54.405 120.3zM462.545 316.70899999999995c-6.029-4.499-13.443-3.882-16.602 1.523-3.324 5.249-2.079 13.682 4.004 18.111 7.044 5.253 14.385 3.74 17.558-1.523 3.173-5.385 0.901-13.473-4.96-18.111M406.454 268.94399999999996c-17.766-2.09-32.079 8.149-32.079 23.019 0 14.784 12.729 30.282 30.5 32.136 20.392 1.943 33.668-9.82 33.668-24.674 0-14.789-14.399-28.476-32.089-30.481M430.45 393.998c-95.119-11.13-84.131-100.237-84.131-100.237s-0.976-28.223 25.505-42.587c55.66-30.156 112.961-11.903 141.938 25.5 28.962 37.399 11.96 128.393-83.311 117.323zM697.034 454.907c7.668 0 14.178 5.677 15.286 13.063 0.132 0.561 0.193 1.052 0.193 1.665 11.62 104.457-85.583 86.479-85.583 86.479-8.64 0-15.548-6.98-15.548-15.69 0-8.575 6.908-15.559 15.548-15.559 69.827 15.416 54.405-54.401 54.405-54.401 0-8.638 7.046-15.558 15.7-15.558zM685.707 637.2429999999999c-33.612 7.871-68.172 1.078-77.874-0.773-0.74-0.077-1.448-0.774-2.126-0.922-0.339-0.061-0.547-0.406-0.547-0.406-9.556-2.698-16.525-11.545-16.525-21.987 0-12.441 10.088-22.675 22.67-22.675 0 0 12.243 1.641 20.529 4.89 8.226 3.306 77.844 2.465 112.414-55.605 18.874-42.374 8.301-70.744 6.989-75.304 0 0-4.493-11.004-4.493-21.851 0-12.517 10.088-20.381 22.598-20.381 10.442 0 19.228 1.437 21.785 19.106h0.131c37.125 123.726-45.416 181.861-105.55 195.907zM511.997 842.736c-256.544 0-464.534-207.984-464.534-464.494 0-256.595 207.986-464.539 464.534-464.539 256.554 0 464.541 207.944 464.541 464.539 0 256.508-207.986 464.494-464.541 464.494M511.287 817.856c242.037 0 438.951-196.872 438.951-438.905 0-242.078-196.913-438.975-438.951-438.975-242.073 0-438.985 196.898-438.985 438.975 0 242.032 196.912 438.905 438.985 438.905z"  horiz-adv-x="1024" />

    
    <glyph glyph-name="xunzhang" unicode="&#58974;" d="M517.20914 693.954331c-102.97121 0-186.745195-83.772962-186.745195-186.745195 0-102.972233 83.772962-186.745195 186.745195-186.745195 102.972233 0 186.745195 83.772962 186.745195 186.745195C703.954335 610.181369 620.181373 693.954331 517.20914 693.954331zM517.20914 371.629251c-74.758658 0-135.579885 60.821227-135.579885 135.579885 0 74.758658 60.821227 135.579885 135.579885 135.579885 74.759681 0 135.579885-60.821227 135.579885-135.579885C652.789025 432.450479 591.968821 371.629251 517.20914 371.629251zM819.447742 364.932736c20.859074 44.071751 31.858592 92.586698 31.858592 142.792147 0 89.239464-34.752502 173.137269-97.854679 236.239446S606.45065 841.819007 517.211187 841.819007s-173.137269-34.751478-236.239446-97.853655-97.853655-146.999982-97.853655-236.239446c0-50.687426 11.224646-99.645464 32.474622-144.053883L64.835146 101.634004l197.854207-2.211365 95.677083-167.819147 139.570779 242.592131c6.393617-0.361227 12.817933-0.564865 19.274996-0.564865 6.720052 0 13.406335 0.222057 20.059871 0.61296l126.125559-228.019227 104.205317 168.20391 193.114253-4.88731L819.447742 364.932736zM358.568027 34.55526L292.603663 150.255375l-139.866515 1.563612 92.818989 161.332409c10.56359-14.682397 22.373567-28.624944 35.415604-41.666982 45.292556-45.293579 101.301174-75.977415 162.306596-89.690742L358.568027 34.55526zM527.158746 224.989473c-3.304256-0.11461-6.615675-0.193405-9.94756-0.193405-2.664689 0-5.320169 0.045025-7.968485 0.11768-45.554522 1.266853-88.449471 13.353123-126.205377 33.776268-4.367471 2.362814-8.667404 4.836145-12.893658 7.417947-47.327912 28.915563-85.529979 71.343885-109.23282 121.874745-17.067724 36.386722-26.628474 76.965929-26.628474 119.743198 0 156.007123 126.921691 282.928814 282.928814 282.928814s282.928814-126.921691 282.928814-282.928814c0-35.470863-6.580882-69.429279-18.553565-100.742449-12.55699-32.844036-33.127492-61.045331-54.19532-88.448448C671.120532 245.34201 540.176225 225.442798 527.158746 224.989473zM739.560274 166.318212L665.896554 47.413102l-74.381058 134.468574c60.862159 13.755282 116.734678 44.403303 161.935136 89.603761 13.217023 13.217023 25.172309 27.356045 35.842323 42.256406l83.408665-150.791331L739.560274 166.318212z"  horiz-adv-x="1024" />

    
    <glyph glyph-name="shizikuang" unicode="&#59013;" d="M65.52576 847.24736a18.24768 18.24768 0 0 1-16.78336-18.5344v-889.45152a18.26816 18.26816 0 0 1 17.99168-18.52928H956.73856a18.27328 18.27328 0 0 1 18.52928 17.9968V828.71296a18.2784 18.2784 0 0 1-17.99168 18.5344H67.27168a33.08032 33.08032 0 0 1-1.74592 0z m20.27008-37.06368h852.40832v-852.38784H85.79584V810.18368zM190.7968 408.74496h619.52v-35.84h-619.52zM520.2944 700.57984l-0.23552-619.52-35.84 0.01536 0.24064 619.52z"  horiz-adv-x="1024" />

    
    <glyph glyph-name="chacha" unicode="&#58882;" d="M959.36 21.824l-85.184-85.184-362.176 362.176-362.176-362.176-85.184 85.184 362.176 362.176-362.176 362.176 85.184 85.184 362.176-362.176 362.176 362.176 85.184-85.184-362.176-362.176 362.176-362.176z"  horiz-adv-x="1024" />

    
    <glyph glyph-name="sousuo" unicode="&#58883;" d="M940.3 69.5L712.6 272.6l2.2 4.5c35.7 58 55.8 122.8 55.8 189.7C770.6 661 612.1 819.5 418 819.5S65.3 661 65.3 466.8 223.8 114.1 418 114.1c67 0 131.7 20.1 189.7 55.8l2.2 2.2L837.6-31c13.4-13.4 31.2-20.1 51.3-20.1 20.1 0 37.9 6.7 51.3 20.1 13.4 13.4 20.1 31.2 20.1 51.3 0.1 17.9-6.6 35.8-20 49.2zM418 176.6c-160.7 0-290.2 129.5-290.2 290.2S257.2 757 418 757s290.2-129.5 290.2-290.2c-0.1-158.5-129.5-290.2-290.2-290.2z"  horiz-adv-x="1024" />

    
    <glyph glyph-name="pinglun" unicode="&#58890;" d="M280.9-9.3c-2.5 0-5 0.6-7.2 1.9-4.8 2.6-7.8 7.7-7.8 13.1v148H125.5c-19.2 0-34.8 15.7-34.8 35v560c0 19.3 15.6 35 34.8 35H906c19.2 0 34.8-15.7 34.8-35v-560c0-19.3-15.6-35-34.8-35H541.5L289-6.9c-2.5-1.6-5.3-2.4-8.1-2.4zM125.5 753.8c-2.6 0-4.8-2.2-4.8-5v-560c0-2.8 2.1-5 4.8-5h155.4c8.3 0 15-6.7 15-15V33l233.2 148.4c2.4 1.5 5.2 2.3 8.1 2.3H906c2.6 0 4.8 2.2 4.8 5v560c0 2.8-2.1 5-4.8 5H125.5zM267.4 409.8c-35.8 0-65 29.2-65 65s29.2 65 65 65 65-29.2 65-65-29.2-65-65-65z m0 100c-19.3 0-35-15.7-35-35s15.7-35 35-35 35 15.7 35 35-15.7 35-35 35zM515.1 409.8c-35.8 0-65 29.2-65 65s29.2 65 65 65 65-29.2 65-65-29.1-65-65-65z m0 100c-19.3 0-35-15.7-35-35s15.7-35 35-35 35 15.7 35 35-15.7 35-35 35zM760.7 409.8c-35.8 0-65 29.2-65 65s29.2 65 65 65 65-29.2 65-65-29.2-65-65-65z m0 100c-19.3 0-35-15.7-35-35s15.7-35 35-35 35 15.7 35 35-15.7 35-35 35z"  horiz-adv-x="1024" />

    
    <glyph glyph-name="hot" unicode="&#58935;" d="M531.157827 287.222863c-32.663934 0-48.963155-24.576745-48.963155-61.458747 0-40.960901 16.299221-61.461817 48.963155-61.461817 32.6844 0 48.986691 20.499893 48.986691 61.461817-4.118807 36.882002-16.302291 57.381895-48.986691 61.458747z m175.606507 381.15393c20.417005-49.191352 24.576745-122.878608-16.259312-163.961283-69.527516 270.581602-245.113557 327.969637-245.113557 327.969637 20.417005-139.304719-73.52148-291.001677-167.456897-405.730675-4.118807 57.384965-8.149611 94.269014-36.69883 147.579174-8.149611-102.461603-81.668021-184.506201-106.203834-282.848997-16.300244-86.119403-4.115738-163.967422 57.115836-233.576803 97.970312-94.28948 351.234503-213.136262 608.387257-4.117784 236.945527 241.768369-36.634362 573.727876-93.770663 614.686731z m-289.838178-540.960589h-49.087998v77.848019h-81.650625v-77.848019h-44.952818v192.616926h44.952818v-77.887928h85.786828v77.887928h44.951795v-192.616926z m114.231671-4.074805c-61.23362 4.073782-93.91802 36.886095-97.949846 98.344842 4.136204 65.535599 36.716226 98.345866 97.949846 102.420671 61.295018-4.073782 89.819678-36.885072 93.979418-102.420671-0.001023-61.458747-32.6844-94.270037-93.979418-98.344842z m220.475414 159.804612v-159.804612h-44.952818V283.146011h-61.249993v36.887119h167.45485v-36.887119h-61.252039z"  horiz-adv-x="1024" />

    
    <glyph glyph-name="yuandian" unicode="&#58884;" d="M512 384m-512 0a512 512 0 1 1 1024 0 512 512 0 1 1-1024 0Z"  horiz-adv-x="1024" />

    
    <glyph glyph-name="yanjing" unicode="&#58889;" d="M496.565 141.531c-37.219 0-75.045 3.649-112.507 10.947-68.113 13.258-126.252 38.921-173.079 76.262-38.678 30.772-70.18 69.572-96.696 118.711-4.379 8.028-2.676 18.001 4.135 24.204 66.531 60.572 157.146 107.885 255.301 133.184 7.906 2.068 16.177-0.973 21.042-7.541s5.108-15.447 0.851-22.38c-16.785-26.88-25.664-57.652-25.664-89.033 0-93.047 75.654-168.7 168.822-168.7 93.047 0 168.7 75.654 168.7 168.7 0 30.043-8.149 59.599-23.596 85.627-4.135 6.933-3.649 15.69 1.216 22.137 4.865 6.446 13.136 9.365 21.042 7.176 75.045-19.947 141.577-51.449 187.675-88.79 23.718-19.339 43.057-40.503 55.706-61.423 14.474-23.718 19.339-45.611 14.231-63.491-3.284-11.433-13.744-31.259-47.314-35.516-35.637-4.5-62.274-15.325-106.304-33.448-21.893-9.001-46.706-19.217-78.451-30.894-84.654-31.137-159.456-45.733-235.11-45.733zM157.097 352.559c52.179-88.79 127.103-140.117 234.502-160.916 35.029-6.811 70.302-10.217 104.966-10.217h1.824c-95.723 18.853-168.214 103.507-168.214 204.703 0 23.11 3.892 46.098 11.433 67.748-69.937-23.475-133.914-58.504-184.512-101.317zM737.027 450.106c6.69-20.677 10.217-42.205 10.217-64.099 0-83.56-49.382-155.808-120.535-189.012 29.313 6.933 59.477 16.177 91.101 27.853 31.016 11.433 55.463 21.528 77.113 30.407 45.489 18.609 75.532 31.016 116.521 36.124 5.717 0.73 12.771 2.433 13.987 6.933 3.406 12.041-12.163 46.706-56.801 82.951-33.327 27.002-79.059 50.841-131.603 68.842zM493.16 461.417l-24.448 40.503c-32.475-19.582-56.071-52.301-63.247-90.857l46.584-8.757c4.744 25.056 20.069 46.341 41.111 59.112zM945.014 289.798c-10.947 0-19.947 8.879-19.947 19.947 0 50.476-36.367 109.588-99.858 162.011-30.651 25.299-66.653 48.165-104.237 65.923-39.165 18.609-78.573 31.38-117.251 38.070-83.073 14.352-172.228 12.163-257.612-6.203-94.385-20.434-180.62-59.234-256.030-115.305-8.879-6.568-21.285-4.744-27.853 4.135-6.568 8.879-4.744 21.285 4.135 27.853 80.032 59.477 171.255 100.588 271.477 122.238 90.371 19.461 184.634 21.772 272.815 6.568 83.438-14.352 171.011-55.341 240.097-112.507 34.543-28.583 62.031-59.112 81.735-90.736 21.65-34.786 32.597-69.086 32.597-102.047-0.122-10.947-9.001-19.947-20.069-19.947z"  horiz-adv-x="1024" />

    
    <glyph glyph-name="message" unicode="&#58993;" d="M920 750.4v-600h-550.9l-116.2-116.2-116.2 116.2h-32.7v600h816M960 790.4h-896v-680h56.1l132.8-132.8 132.8 132.8h574.3v680zM792 611.3h-560v-40h560v40zM792 473.3h-560v-40h560v40zM574.5 335.4h-342.5v-40h342.5v40z"  horiz-adv-x="1024" />

    
    <glyph glyph-name="yanjing1" unicode="&#58885;" d="M515.2 672c-307.2 0-492.8-313.6-492.8-313.6s214.4-304 492.8-304 492.8 304 492.8 304-185.6 313.6-492.8 313.6zM832 243.2c-102.4-86.4-211.2-140.8-320-140.8s-217.6 51.2-320 140.8c-35.2 32-70.4 64-99.2 99.2-6.4 6.4-9.6 12.8-16 19.2 3.2 6.4 9.6 12.8 12.8 19.2 25.6 35.2 57.6 70.4 92.8 102.4 99.2 89.6 208 144 329.6 144s230.4-54.4 329.6-144c35.2-32 64-67.2 92.8-102.4 3.2-6.4 9.6-12.8 12.8-19.2-3.2-6.4-9.6-12.8-16-19.2-28.8-32-60.8-67.2-99.2-99.2zM512 550.4c-96 0-169.6-76.8-169.6-169.6 0-96 76.8-169.6 169.6-169.6 96 0 169.6 76.8 169.6 169.6 0 92.8-76.8 169.6-169.6 169.6zM512 256c-67.2 0-121.6 54.4-121.6 121.6 0 67.2 54.4 121.6 121.6 121.6 67.2 0 121.6-54.4 121.6-121.6 0-64-54.4-121.6-121.6-121.6z"  horiz-adv-x="1024" />

    
    <glyph glyph-name="map" unicode="&#58895;" d="M456.8-98.4c27.2-30.4 72.8-30.4 100 0.8 2.4 2.4 7.2 8 14.4 16 12 12.8 24.8 28 38.4 44.8 40 47.2 80 98.4 117.6 150.4s70.4 103.2 96.8 151.2c49.6 88.8 76.8 165.6 76.8 228.8 0.8 222.4-176 402.4-394.4 402.4s-394.4-180-394.4-402.4c0-63.2 27.2-140.8 76.8-229.6 27.2-48 60-99.2 96.8-151.2 37.6-52 77.6-103.2 117.6-150.4 14.4-16.8 27.2-32 38.4-44.8 8-8 12.8-13.6 15.2-16zM492-65.6c-2.4 2.4-7.2 8-14.4 16-11.2 12.8-24 28-37.6 44-39.2 46.4-78.4 96.8-115.2 147.2-36.8 51.2-68.8 100-94.4 146.4-45.6 82.4-70.4 152.8-70.4 205.6 0 195.2 155.2 353.6 346.4 353.6s347.2-158.4 347.2-353.6c0-52.8-24.8-123.2-70.4-204.8-25.6-46.4-57.6-96-94.4-146.4-36.8-51.2-76-100.8-115.2-147.2-13.6-16-26.4-31.2-37.6-44-7.2-8-12-12.8-14.4-16-8.8-9.6-20.8-10.4-29.6-0.8zM506.4 317.6c-108 0-196 88-196 196s88 196 196 196 196-88 196-196-88-196-196-196zM506.4 661.6c-81.6 0-148-66.4-148-148s66.4-148 148-148 148 66.4 148 148-66.4 148-148 148z"  horiz-adv-x="1024" />

    
    <glyph glyph-name="skullbulbidea" unicode="&#58900;" d="M456.04 344.03a7.988 7.988 0 0 0-7.994 7.994V495.92a7.99 7.99 0 0 0 7.994 7.994 7.99 7.99 0 0 0 7.994-7.994v-143.896a7.988 7.988 0 0 0-7.994-7.994zM456.04 487.926a7.99 7.99 0 0 0-7.994 7.994c0 22.04-17.932 39.972-39.97 39.972-4.42 0-7.996 3.576-7.996 7.994s3.576 7.996 7.996 7.996c30.852 0 55.958-25.108 55.958-55.96a7.99 7.99 0 0 0-7.994-7.996zM360.108 487.926a7.99 7.99 0 0 0-7.994 7.994c0 30.854 25.108 55.96 55.96 55.96 4.418 0 7.994-3.576 7.994-7.996s-3.576-7.994-7.994-7.994c-22.04 0-39.972-17.932-39.972-39.972a7.99 7.99 0 0 0-7.994-7.992zM408.074 439.96c-30.854 0-55.96 25.108-55.96 55.96a7.99 7.99 0 0 0 7.994 7.994 7.99 7.99 0 0 0 7.994-7.994c0-22.04 17.934-39.97 39.972-39.97a7.99 7.99 0 0 0 7.994-7.994 7.99 7.99 0 0 0-7.994-7.996zM567.958 344.03a7.988 7.988 0 0 0-7.994 7.994V495.92a7.99 7.99 0 0 0 7.994 7.994 7.988 7.988 0 0 0 7.994-7.994v-143.896a7.986 7.986 0 0 0-7.994-7.994zM567.958 487.926a7.99 7.99 0 0 0-7.994 7.994c0 30.854 25.108 55.96 55.96 55.96 4.418 0 7.994-3.576 7.994-7.996s-3.576-7.994-7.994-7.994c-22.046 0-39.972-17.932-39.972-39.972a7.988 7.988 0 0 0-7.994-7.992zM663.89 487.926a7.99 7.99 0 0 0-7.994 7.994c0 22.04-17.924 39.972-39.97 39.972-4.42 0-7.994 3.576-7.994 7.994s3.574 7.996 7.994 7.996c30.854 0 55.958-25.108 55.958-55.96a7.99 7.99 0 0 0-7.994-7.996zM615.926 439.96a7.99 7.99 0 0 0-7.994 7.996 7.988 7.988 0 0 0 7.994 7.994c22.046 0 39.97 17.932 39.97 39.97a7.99 7.99 0 0 0 7.994 7.994 7.988 7.988 0 0 0 7.994-7.994c0-30.852-25.104-55.96-55.958-55.96zM615.926 439.96c-6.386 0-12.68 1.07-18.674 3.186a8.004 8.004 0 0 0-4.888 10.196c1.454 4.16 6.042 6.332 10.198 4.886a40.078 40.078 0 0 1 13.366-2.28 7.994 7.994 0 1 0-0.002-15.988zM408.042 439.96a7.99 7.99 0 0 0-7.996 7.996 7.99 7.99 0 0 0 7.996 7.994c4.574 0 9.07 0.764 13.366 2.28 4.128 1.436 8.736-0.726 10.196-4.886a8 8 0 0 0-4.886-10.196 56.01 56.01 0 0 0-18.676-3.188zM695.87 168.154h-367.74c-4.418 0-7.994 3.576-7.994 7.994s3.576 7.994 7.994 7.994h367.738c4.418 0 7.992-3.576 7.992-7.994s-3.572-7.994-7.99-7.994zM647.902 136.178a7.988 7.988 0 0 0-7.994 7.994v31.976a7.99 7.99 0 0 0 7.994 7.994 7.988 7.988 0 0 0 7.994-7.994v-31.976a7.988 7.988 0 0 0-7.994-7.994zM583.948 136.178a7.988 7.988 0 0 0-7.994 7.994v31.976a7.99 7.99 0 0 0 7.994 7.994 7.99 7.99 0 0 0 7.996-7.994v-31.976a7.99 7.99 0 0 0-7.996-7.994zM512 136.178a7.99 7.99 0 0 0-7.996 7.994v31.976a7.99 7.99 0 0 0 7.996 7.994 7.99 7.99 0 0 0 7.994-7.994v-31.976a7.988 7.988 0 0 0-7.994-7.994zM440.05 136.178a7.988 7.988 0 0 0-7.994 7.994v31.976c0 4.418 3.576 7.994 7.994 7.994s7.994-3.576 7.994-7.994v-31.976a7.988 7.988 0 0 0-7.994-7.994zM376.096 136.178a7.988 7.988 0 0 0-7.994 7.994v31.976a7.99 7.99 0 0 0 7.994 7.994 7.99 7.99 0 0 0 7.996-7.994v-31.976a7.99 7.99 0 0 0-7.996-7.994zM328.124 72.222a7.992 7.992 0 0 0-7.956 7.306 7.98 7.98 0 0 0 7.268 8.65l367.746 31.976c4.308 0.546 8.276-2.872 8.648-7.276a7.986 7.986 0 0 0-7.276-8.65l-367.728-31.976c-0.234-0.03-0.468-0.03-0.702-0.03zM328.124 24.258a7.99 7.99 0 0 0-7.956 7.306 7.98 7.98 0 0 0 7.268 8.65l367.746 31.976c4.308 0.468 8.276-2.874 8.648-7.276a7.984 7.984 0 0 0-7.276-8.65l-367.728-31.976c-0.234-0.03-0.468-0.03-0.702-0.03zM344.12 24.258a7.988 7.988 0 0 0-7.994 7.992v111.922a7.99 7.99 0 0 0 7.994 7.994 7.99 7.99 0 0 0 7.994-7.994v-111.922a7.988 7.988 0 0 0-7.994-7.992zM679.878 24.258a7.988 7.988 0 0 0-7.994 7.992v29.886a7.99 7.99 0 0 0 7.994 7.994 7.988 7.988 0 0 0 7.994-7.994v-29.886a7.986 7.986 0 0 0-7.994-7.992zM679.878 54.14a7.99 7.99 0 0 0-7.994 7.996v82.036a7.99 7.99 0 0 0 7.994 7.994 7.988 7.988 0 0 0 7.994-7.994v-82.036a7.988 7.988 0 0 0-7.994-7.996zM647.902-7.72H376.096a7.992 7.992 0 0 0-5.652 2.342L338.466 26.6a7.986 7.986 0 0 0 0 11.302 7.988 7.988 0 0 0 11.304 0l29.634-29.634h265.186l29.636 29.634a7.986 7.986 0 0 0 11.302 0 7.986 7.986 0 0 0 0-11.302l-31.976-31.978a7.98 7.98 0 0 0-5.65-2.342zM512-39.698c-79.038 0-79.944 38.348-79.944 39.97a7.988 7.988 0 0 0 7.994 7.994 8 8 0 0 0 7.994-7.776c0.086-0.89 3.17-24.202 63.956-24.202 61.642 0 63.954 23.982 63.954 24.232 0.282 4.294 3.904 7.994 8.244 7.59 4.31-0.124 7.746-3.53 7.746-7.84 0-1.62-0.906-39.968-79.944-39.968zM456.04 264.086a8.024 8.024 0 0 0-5.262 1.966 8.006 8.006 0 0 0-0.758 11.29l55.96 63.956a8 8 0 0 0 11.282 0.766 8.004 8.004 0 0 0 0.756-11.29l-55.958-63.956a7.976 7.976 0 0 0-6.02-2.732zM567.958 264.086a8.018 8.018 0 0 0-6.028 2.732l-55.952 63.956a8.008 8.008 0 0 0 0.756 11.29c3.302 2.902 8.354 2.558 11.28-0.766l55.968-63.956a8.008 8.008 0 0 0-0.766-11.29 8 8 0 0 0-5.258-1.966zM488.016 264.086H456.04a7.988 7.988 0 0 0-7.994 7.994 7.99 7.99 0 0 0 7.994 7.994h31.978a7.99 7.99 0 0 0 7.994-7.994 7.99 7.99 0 0 0-7.996-7.994zM567.958 264.086h-31.976a7.988 7.988 0 0 0-7.994 7.994 7.99 7.99 0 0 0 7.994 7.994h31.976a7.988 7.988 0 0 0 7.994-7.994 7.986 7.986 0 0 0-7.994-7.994zM695.87 136.178h-367.74a7.988 7.988 0 0 0-7.994 7.994v88.344c-80.17 60.33-127.91 155.498-127.91 255.41 0 176.32 143.452 319.772 319.772 319.772 176.31 0 319.772-143.452 319.772-319.772 0-99.914-47.748-195.08-127.91-255.41v-88.344a7.984 7.984 0 0 0-7.99-7.994z m-359.746 15.988h351.748v84.376c0 2.544 1.218 4.934 3.28 6.45 78.04 57.178 124.63 148.736 124.63 244.934 0 167.506-136.278 303.784-303.784 303.784s-303.784-136.278-303.784-303.784c0-96.19 46.592-187.74 124.636-244.934a8.02 8.02 0 0 0 3.272-6.45v-84.376zM136.268 214.886a8.018 8.018 0 0 0-3.856 1C50.954 260.854 0.35 346.714 0.35 439.96c0 126.3 90.248 232.506 214.596 252.53 4.374 0.726 8.456-2.256 9.166-6.62a7.994 7.994 0 0 0-6.622-9.166C100.934 657.938 16.338 558.368 16.338 439.96c0-87.42 47.434-167.912 123.802-210.084a7.98 7.98 0 0 0 3.13-10.852 7.956 7.956 0 0 0-7.002-4.138zM136.268 104.2a7.99 7.99 0 0 0-7.994 7.996v110.702a7.99 7.99 0 0 0 7.994 7.994 7.99 7.99 0 0 0 7.994-7.994v-110.702a7.99 7.99 0 0 0-7.994-7.996zM296.154 88.21H152.248a7.992 7.992 0 0 0-5.652 2.342l-15.98 15.99c-3.124 3.122-3.124 8.18 0 11.302s8.182 3.124 11.304 0l13.638-13.646h140.594a7.99 7.99 0 0 0 7.996-7.994 7.992 7.992 0 0 0-7.994-7.994zM120.272 120.188a7.994 7.994 0 0 0-7.978 7.59 8.012 8.012 0 0 0 7.58 8.4l175.882 9.024c4.042 0.266 8.166-3.186 8.392-7.588a8.014 8.014 0 0 0-7.582-8.4l-175.882-9.026h-0.412zM296.162 168.154H136.268c-4.418 0-7.994 3.576-7.994 7.994s3.576 7.994 7.994 7.994h159.894c4.418 0 7.996-3.576 7.996-7.994s-3.578-7.994-7.996-7.994zM240.194 56.234c-63.228 0-63.954 38.348-63.954 39.97a7.988 7.988 0 0 0 7.994 7.994 7.992 7.992 0 0 0 7.994-7.87c0.054-1.248 1.726-24.108 47.966-24.108 46.522 0 47.926 23.14 47.966 24.124 0.164 4.358 3.364 7.728 8.142 7.776 4.356-0.078 7.846-3.558 7.846-7.916 0-1.622-0.726-39.97-63.954-39.97zM72.314 431.966a7.992 7.992 0 0 0-7.996 7.994c0 75.564 44.54 144.328 113.466 175.196a8.01 8.01 0 0 0 10.562-4.036 7.994 7.994 0 0 0-4.036-10.562c-63.182-28.286-104.004-91.326-104.004-160.596a7.988 7.988 0 0 0-7.992-7.996zM887.732 214.886a7.96 7.96 0 0 0-7.012 4.136 7.978 7.978 0 0 0 3.138 10.852c76.352 42.174 123.802 122.664 123.802 210.084 0 118.408-84.598 217.978-201.154 236.746a7.972 7.972 0 0 0-6.62 9.166 7.926 7.926 0 0 0 9.148 6.62c124.35-20.024 214.614-126.23 214.614-252.53 0-93.246-50.606-179.106-132.078-224.074-1.216-0.672-2.542-1-3.838-1zM887.732 104.2a7.99 7.99 0 0 0-7.996 7.996v110.702a7.99 7.99 0 0 0 7.996 7.994 7.988 7.988 0 0 0 7.992-7.994v-110.702a7.988 7.988 0 0 0-7.992-7.996zM871.758 88.21h-143.912a7.99 7.99 0 0 0-7.994 7.994 7.988 7.988 0 0 0 7.994 7.994h140.602l13.632 13.646c3.122 3.124 8.18 3.124 11.302 0s3.124-8.182 0-11.302l-15.972-15.99a7.992 7.992 0 0 0-5.652-2.342zM903.72 120.188h-0.406l-175.89 9.026a7.996 7.996 0 0 0-7.572 8.4c0.218 4.402 4.246 7.838 8.384 7.588l175.89-9.024a8.03 8.03 0 0 0 7.586-8.4 8 8 0 0 0-7.992-7.59zM887.732 168.154h-159.902c-4.418 0-7.994 3.576-7.994 7.994s3.576 7.994 7.994 7.994h159.902c4.418 0 7.992-3.576 7.992-7.994s-3.574-7.994-7.992-7.994zM783.804 56.234c-63.236 0-63.954 38.348-63.954 39.97 0 4.42 3.576 7.994 7.994 7.994s7.994-3.574 7.994-7.994c0.032-0.842 1.436-23.982 47.964-23.982s47.936 23.14 47.966 24.124c0.156 4.358 3.528 7.728 8.15 7.776 4.34-0.078 7.838-3.558 7.838-7.916 0.004-1.624-0.714-39.972-63.952-39.972zM951.686 431.966a7.99 7.99 0 0 0-7.994 7.994c0 69.27-40.814 132.312-104.004 160.596a7.996 7.996 0 0 0-4.044 10.562c1.812 4.02 6.558 5.832 10.57 4.036 68.936-30.868 113.466-99.632 113.466-175.196a7.99 7.99 0 0 0-7.994-7.992z"  horiz-adv-x="1024" />

    
    <glyph glyph-name="weibiaoti-" unicode="&#58886;" d="M512 836.022857c-242.834286 0-438.857143-196.022857-438.857143-438.857143s196.022857-438.857143 438.857143-438.857143 438.857143 196.022857 438.857143 438.857143-196.022857 438.857143-438.857143 438.857143z m0-819.2c-210.651429 0-380.342857 169.691429-380.342857 380.342857s169.691429 380.342857 380.342857 380.342857 380.342857-169.691429 380.342857-380.342857-169.691429-380.342857-380.342857-380.342857zM656.822857 397.165714c0 32.182857-229.668571 146.285714-263.314286 146.285715s-33.645714-292.571429 0-292.571429 263.314286 114.102857 263.314286 146.285714z"  horiz-adv-x="1024" />

    
    <glyph glyph-name="sanjiaoxing" unicode="&#58887;" d="M130.046 599.276l377.655-406.321 384.203 404.037z"  horiz-adv-x="1024" />

    
    <glyph glyph-name="wenzhang" unicode="&#58888;" d="M800.281 509.521v-453.839c0-29.663-24.071-53.713-53.772-53.713h-539.332c-29.76 0-53.772 23.988-53.772 53.814v609.558c0 29.648 24.185 53.814 53.728 53.814h453.933c9.062 0 16.406 7.346 16.406 16.406s-7.346 16.406-16.406 16.406h-453.933c-47.66 0-86.541-38.851-86.541-86.628v-609.558c0-47.956 38.711-86.628 86.585-86.628h539.332c47.817 0 86.585 38.736 86.585 86.526v514.14c0 9.062-7.346 16.406-16.406 16.406-9.062 0-16.406-7.346-16.406-16.406v-60.302zM254.187 477.75h234.374v-32.813h-234.374v32.813zM254.187 290.25h421.875v-32.813h-421.875v32.813zM875.131 802.325l23.202-23.202-331.456-331.456-23.202 23.202 331.456 331.456z"  horiz-adv-x="1024" />

    
    <glyph glyph-name="x" unicode="&#58891;" d="M568.526 384.058l334.149 334.149c9.804 9.804 9.804 25.716 0 35.519s-25.716 9.804-35.594 0l-334.149-334.149-334.075 334.149c-9.804 9.804-25.716 9.804-35.519 0s-9.804-25.716 0-35.519l334.149-334.149-334.149-334.149c-9.804-9.879-9.804-25.79 0-35.594 4.901-4.901 11.312-7.392 17.798-7.392s12.896 2.411 17.723 7.392l334.149 334.149 334.149-334.149c4.901-4.901 11.386-7.392 17.723-7.392 6.485 0 12.896 2.411 17.798 7.392 9.804 9.804 9.804 25.716 0 35.594l-334.152 334.149z"  horiz-adv-x="1024" />

    
    <glyph glyph-name="dian" unicode="&#59362;" d="M93.091 384.202m-93.091 0a93.091 93.091 0 1 1 186.182 0 93.091 93.091 0 1 1-186.182 0ZM512 384.202m-93.091 0a93.091 93.091 0 1 1 186.182 0 93.091 93.091 0 1 1-186.182 0ZM930.909 384.202m-93.091 0a93.091 93.091 0 1 1 186.182 0 93.091 93.091 0 1 1-186.182 0Z"  horiz-adv-x="1024" />

    
    <glyph glyph-name="shangxiajiantou" unicode="&#58892;" d="M512.0640000000001 642.8373333333333l278.39999999999986-279.6800000000001-45.37600000000001-45.119999999999976-232.70399999999992 233.79200000000003-231.61600000000007-236.03199999999998-45.631999999999984 44.80000000000001z"  horiz-adv-x="1024" />

    
    <glyph glyph-name="sanjiaoxing-copy-copy" unicode="&#58893;" d="M832.185 255.98000000000002h-640.37l320.184 384.016z"  horiz-adv-x="1024" />

    
    <glyph glyph-name="shangxiajiantou1" unicode="&#58894;" d="M511.936 274.496l-278.4 279.68 45.376 45.12 232.704-233.792 231.616 236.032 45.632-44.8z"  horiz-adv-x="1024" />

    
    <glyph glyph-name="yuandian1" unicode="&#58897;" d="M318.014 384.515c0-106.972 86.718-193.69 193.69-193.69s193.69 86.718 193.69 193.69c0 106.972-86.718 193.69-193.69 193.69-106.972 0-193.69-86.718-193.69-193.69z"  horiz-adv-x="1024" />

    
    <glyph glyph-name="zuoyoujiantou" unicode="&#58898;" d="M293.60229999999996 387.18460000000005c-1.7763568394002505e-15 5.248 2.016299999999997 9.872400000000003 6.047699999999995 13.888500000000002L581.3779999999999 682.8165c4.0325 4.0325 8.672299999999998 6.032400000000003 13.920299999999994 6.032400000000004s9.872400000000003-1.9998999999999976 13.903900000000004-6.032399999999994l30.224400000000006-30.239699999999992c4.0325-4.0325 6.0477000000000025-8.655899999999999 6.047700000000005-13.9039 1.3322676295501878e-15-5.2316-2.016299999999997-9.872400000000003-6.047699999999995-13.903900000000002l-237.59969999999993-237.59970000000007L639.4266000000001 149.58390000000009c4.0325-4.0325 6.0477000000000025-8.655899999999999 6.047700000000005-13.9039s-2.016299999999997-9.887700000000002-6.0476999999999945-13.9203l-30.22439999999998-30.22440000000001c-4.0325-4.0325-8.655899999999999-6.0477000000000025-13.9039-6.047700000000005s-9.887700000000002 2.016299999999997-13.9203 6.0476999999999945L299.6500000000001 373.2643999999999C295.6186 377.29589999999996 293.6023 381.9366 293.60229999999996 387.18460000000005z"  horiz-adv-x="1024" />

    
    <glyph glyph-name="xiaoxi" unicode="&#59045;" d="M884.992 244.416c-8.448 55.104-33.088 216.32-39.424 246.592-1.6 137.728-124.928 225.6-237.504 262.208v10.176c0 49.28-43.008 89.344-95.936 89.344s-95.872-40.128-95.872-89.344v-6.656c-125.184-36.16-245.76-129.92-247.36-266.112-6.336-30.912-27.52-190.592-34.816-245.888-31.424-18.624-59.392-45.376-59.392-111.552 0-31.36 25.344-90.624 121.088-90.624h153.408A164.992 164.992 0 0 1 512-94.72a165.12 165.12 0 0 1 162.944 137.28h153.344c95.808 0 121.152 59.264 121.152 90.624-0.064 73.6-36.672 95.68-64.448 111.232zM512-46.72a117.824 117.824 0 0 0-114.496 89.28H626.56A117.76 117.76 0 0 0 512-46.72z m316.224 137.216H195.712c-67.968 0-72.768 35.904-73.088 42.624 0 47.744 17.024 60.288 44.992 75.392l10.816 5.824 1.6 12.16c11.968 91.072 32.256 240.832 35.968 255.04l0.896 6.4c0 118.272 115.008 199.232 229.056 227.072l18.304 4.48v43.904c0 22.784 21.504 41.344 47.936 41.344s47.936-18.56 47.936-41.344v-46.144l17.408-4.928c101.504-28.608 220.032-104.448 220.032-224.064l0.832-6.144c3.52-13.376 26.944-164.352 40.896-256.384l1.728-11.328 18.688-10.752c25.152-14.08 41.664-23.296 41.664-70.528 0-1.728-0.832-42.624-73.152-42.624z"  horiz-adv-x="1024" />

    
    <glyph glyph-name="arrow-right" unicode="&#58901;" d="M329.525 704.453l56.285 58.261 393.996-392.021-393.996-392.021-56.285 58.261 331.786 333.761z"  horiz-adv-x="1024" />

    
    <glyph glyph-name="hot1" unicode="&#58902;" d="M512-125.888c-263.61 0-454.837 174.716-454.837 415.798a25.28 25.28 0 1 0 50.495 0c0-211.643 170.044-365.367 404.342-365.367 234.298 0 404.278 153.724 404.278 365.367a25.343 25.343 0 1 0 50.623 0c-0.064-241.018-191.356-415.798-454.901-415.798zM941.621 264.694a25.28 25.28 0 0 0-25.343 25.28c0 221.306-81.086 346.679-140.797 408.95-2.368-100.606-43.902-182.46-45.758-186.172l-30.464-59.07L682.748 518c-0.768 2.624-67.199 254.33-221.69 322.04-2.56-172.348-157.117-362.615-163.837-370.87l-36.159-44.032-8.448 56.383c-0.064 0.832-11.52 73.982-56.318 132.092 5.312-82.301-20.544-130.62-45.695-177.467-22.08-41.343-42.943-80.446-42.943-146.236a25.28 25.28 0 1 0-50.495 0c0 78.398 26.048 127.1 48.895 169.98 26.687 50.046 49.79 93.181 36.48 180.539a39.935 39.935 0 0 0 20.799 41.15 38.207 38.207 0 0 0 44.479-5.76c43.71-40.574 68.158-93.629 81.214-132.924 45.95 65.855 126.268 198.203 121.34 311.288a40.191 40.191 0 0 0 16.128 34.112 38.015 38.015 0 0 0 35.327 5.631c134.845-46.27 212.091-201.595 247.098-293.688 9.664 33.727 18.112 77.502 15.68 123.517a39.487 39.487 0 0 0 65.79 31.167c65.918-59.775 176.508-199.611 176.508-465.012a25.28 25.28 0 0 0-25.28-25.216z"  horiz-adv-x="1024" />

    
    <glyph glyph-name="shouji" unicode="&#58944;" d="M512 128a43.4176 43.4176 0 1 1 40.96-43.4176 43.4176 43.4176 0 0 1-40.96 43.4176M726.4256 810.3936H297.5744a65.536 65.536 0 0 1-65.3312-65.3312v-719.872a65.536 65.536 0 0 1 65.536-65.536h428.6464a65.536 65.536 0 0 1 65.3312 65.536V744.8576a65.536 65.536 0 0 1-65.3312 65.3312zM297.5744 766.7712h428.8512a21.9136 21.9136 0 0 0 21.7088-21.7088v-539.4432H275.6608V744.8576a21.9136 21.9136 0 0 0 21.9136 21.7088z m428.8512-763.4944H297.5744a21.9136 21.9136 0 0 0-21.7088 21.7088V158.72h472.2688v-133.12a21.9136 21.9136 0 0 0-21.7088-21.7088z m0 0"  horiz-adv-x="1024" />

    
    <glyph glyph-name="ganxie" unicode="&#59175;" d="M510-51.8c-12.7 0-24.6 4.9-33.6 13.9L122.9 315.7c-56.2 56.2-87.1 130.9-87.1 210.4s30.9 154.2 87.1 210.4c56.2 56.2 130.9 87.1 210.4 87.1 35.5 0 70.2-6.2 103.2-18.3 26.4-9.7 51.1-23.1 73.6-39.9 22.6 16.8 47.3 30.1 73.6 39.9 32.9 12.1 67.6 18.3 103.2 18.3 79.5 0 154.2-30.9 210.4-87.1 56.2-56.2 87.1-130.9 87.1-210.4 0-79.1-30.7-153.5-86.3-209.6l-0.8-0.9-0.8-0.7-352.9-352.8c-9-9-20.9-13.9-33.6-13.9zM159.5 349.8L510-0.8 861.9 351c46.7 46.7 72.5 108.9 72.5 175s-25.7 128.3-72.5 175c-46.7 46.7-108.9 72.5-175 72.5-29.6 0-58.5-5.1-85.8-15.2-27.3-10.1-52.4-24.8-74.7-43.9L510 700.5l-16.2 13.9c-22.3 19.1-47.4 33.9-74.7 43.9-27.4 10.1-56.2 15.2-85.8 15.2-66.1 0-128.3-25.7-175-72.5-46.7-46.7-72.5-108.9-72.5-175s25.7-128.3 72.5-175l1.2-1.2z"  horiz-adv-x="1024" />

    
    <glyph glyph-name="zuoyoujiantou-copy-copy" unicode="&#58903;" d="M730.398 380.81500000000005c0-5.248-2.016-9.87199999-6.049-13.889l-281.728-281.743c-4.033-4.033-8.672-6.032-13.92-6.032s-9.872 2-13.904 6.032l-30.225 30.24c-4.033 4.033-6.048 8.656-6.048 13.904 0 5.23300001 2.016 9.87199999 6.048 13.904l237.6 237.6-237.601 237.585c-4.033 4.033-6.048 8.656-6.048 13.904s2.01600001 9.887 6.049 13.92l30.224 30.224c4.033 4.033 8.656 6.048 13.904 6.048s9.887-2.01600001 13.92000001-6.049l281.72799999-281.729c4.031-4.031 6.049-8.67200001 6.04900001-13.92z"  horiz-adv-x="1024" />

    
    <glyph glyph-name="refreshup" unicode="&#58904;" d="M382.226 655.11L641.791 655.11c26.078 0 47.1785-21.1016 47.1785-47.1785l-23.5877-330.373c0-26.078-21.1016-47.1785-47.1795-47.1785L405.817 230.38c-26.077 0-47.2205 21.1006-47.2205 47.1785l-23.5877 330.373c0 26.077 21.1415 47.1784 47.2184 47.1785Zm35.3631-471.951L606.387 183.159c19.5678 0 35.4043-15.8357 35.4043-35.4043L641.792 124.16600000000005c0-19.5268-15.8357-35.4054-35.4043-35.4054l-188.798 0c-19.5268 0-35.3634 15.8796-35.3634 35.4054l0 23.5894c0.00106066 19.5677 15.8377 35.4034 35.3644 35.4033Zm11.8155-141.577L594.614 41.581999999999994c13.0165 0 23.5882-10.5708 23.5882-23.5882l0-23.6322c0-13.0165-10.5718-23.5882-23.5882-23.5882l-165.208 0c-13.0185 0-23.5882 10.5718-23.5882 23.5882l0 23.6322c-0.00101823 13.0185 10.5697 23.5882 23.5872 23.5882ZM452.994-76.404L570.982-76.404c13.0594 0 23.6312-10.5728 23.6312-23.5903 0-13.0574-10.5718-23.6292-23.6312-23.6292l-117.988 0c-13.0165 0-23.5882 10.5718-23.5882 23.6292-0.0010253 13.0165 10.5708 23.5903 23.5882 23.5903Zm-284.687 626.294L486.492 880.759c6.92267 7.21328 15.5041 10.8614 25.4967 10.8614 10.0315 0 18.572-3.64811 25.5366-10.8614L855.71 549.89c10.0744-10.4868 12.7299-25.0393 7.04851-38.4303-5.68037-13.349-18.0337-21.515-32.5851-21.515l-636.372 0c-14.5504 0-26.8628 8.16701-32.5442 21.515-5.72027 13.39-3.02493 27.9434 7.04957 38.4303Z"  horiz-adv-x="1024" />

    
    <glyph glyph-name="wangjimima-copy" unicode="&#58905;" d="M958.668551 385.74883c0-81.694627-184.290283-255.965719-446.910563-255.965719-255.940137 0-446.915679 171.402765-446.915679 255.965719 0 84.544535 191.798281 255.68738 446.915679 255.68738C776.444323 641.43621 958.730972 470.293365 958.668551 385.74883L958.668551 385.74883zM512.150938 594.7447950000001c-118.946043 0-215.365023-93.638657-215.365023-209.139228 0-115.500571 96.41898-209.140251 215.365023-209.140251 118.976742 0 215.404931 93.63968 215.404931 209.140251C727.551776 501.106138 631.127679 594.7447950000001 512.150938 594.7447950000001L512.150938 594.7447950000001zM512.150938 594.7447950000001M512.001535 512.454604c-68.470441 0-123.971499-56.761772-123.971499-126.785591 0-70.02075 55.502082-126.794801 123.971499-126.794801 68.465325 0 123.947963 56.773028 123.947963 126.794801C635.949498 455.692832 580.466859 512.454604 512.001535 512.454604zM559.306934 371.451196c-32.041764 0-58.014298 25.974581-58.014298 58.014298s25.973558 58.014298 58.014298 58.014298c32.04074 0 58.013275-25.973558 58.013275-58.014298S591.347674 371.451196 559.306934 371.451196z"  horiz-adv-x="1024" />

    
    <glyph glyph-name="yuandian2" unicode="&#58917;" d="M512 384m-512 0a512 512 0 1 1 1024 0 512 512 0 1 1-1024 0Z"  horiz-adv-x="1024" />

    
    <glyph glyph-name="icon" unicode="&#58906;" d="M624.86499999 383.75300000000004l-292.15499999 292.159c-12.28 12.27-12.28 32.186 0 44.457 12.27 12.28 32.186 12.28 44.457 0l314.388-314.388c12.28-12.27 12.28-32.186 0-44.457l-314.388-314.387c-6.136-6.14-14.183-9.211-22.228-9.211s-16.092 3.071-22.228 9.211c-12.28 12.27-12.28 32.186 0 44.457l292.155 292.16z"  horiz-adv-x="1024" />

    
    <glyph glyph-name="triangle-right-copy" unicode="&#58907;" d="M933.8750000000002 573.6079999999995l-421.89800000000037-421.8029999999996-421.85199999999975 421.80300000000017 843.75-7.958078640513122e-13z"  horiz-adv-x="1024" />

    
    <glyph glyph-name="x1" unicode="&#58970;" d="M571.733333 384l226.133334 226.133333c17.066667 17.066667 17.066667 42.666667 0 59.733334s-42.666667 17.066667-59.733334 0L512 443.733333 285.866667 669.866667c-17.066667 17.066667-42.666667 17.066667-59.733334 0s-17.066667-42.666667 0-59.733334l226.133334-226.133333-226.133334-226.133333c-17.066667-17.066667-17.066667-42.666667 0-59.733334 8.533333-8.533333 17.066667-12.8 29.866667-12.8s21.333333 4.266667 29.866667 12.8l226.133333 226.133334 226.133333-226.133334c8.533333-8.533333 21.333333-12.8 29.866667-12.8s21.333333 4.266667 29.866667 12.8c17.066667 17.066667 17.066667 42.666667 0 59.733334L571.733333 384z"  horiz-adv-x="1024" />

    
    <glyph glyph-name="hot2" unicode="&#58999;" d="M647.293601 497.413818c19.145321 34.461578-76.581284 182.518727-1.276354 246.336463-5.105419-74.028574 54.883253-127.635473 103.384733-176.136953 35.737932-35.737932 72.75222-67.646801 102.108378-105.937442 122.530054-160.820696 71.475865-393.117257-95.726604-511.818247C522.210838-218.621186 178.871415-99.920196 117.606388 177.048781c-38.290642 168.478824 1.276355 326.746811 111.042862 462.040412C320.54679 755.237474 441.80049 831.818758 579.646801 884.149302c51.054189 17.868966 51.054189 21.69803 28.079804-33.185223-19.145321-49.777835-44.672416-104.661088-45.94877-158.267987-3.829064-113.595571 58.712318-178.689662 85.515766-195.282274z"  horiz-adv-x="1024" />

    
    <glyph glyph-name="dengpao" unicode="&#58908;" d="M431.633157 177.213404h166.151675v-74.045855h-166.151675zM603.202822 166.377425h-176.987654c-5.417989 0-10.835979 1.805996-14.447972 7.223986-1.805996 3.611993-3.611993 7.223986-3.611993 10.835979-1.805996 3.611993-9.029982 27.089947-66.82187 111.971781-27.089947 41.537919-61.40388 130.031746-45.149911 209.495591 1.805996 9.029982 12.641975 16.253968 21.671957 14.447972 9.029982-1.805996 16.253968-12.641975 14.447972-21.671958-14.447972-66.821869 16.253968-146.285714 39.731922-180.599647 41.537919-63.209877 59.597884-95.717813 66.82187-111.971782h151.703704c7.223986 18.059965 25.283951 50.567901 66.821869 111.971782 32.507937 46.955908 63.209877 148.091711 27.089947 213.107584-25.283951 48.761905-83.075838 74.045855-169.763668 74.045855h-1.805997c-55.985891 0-101.135802-10.835979-131.837742-32.507937-9.029982-5.417989-19.865961-3.611993-25.283951 5.41799-5.417989 9.029982-3.611993 19.865961 5.41799 25.28395 36.119929 25.283951 86.687831 37.925926 149.897707 37.925926h3.611993c101.135802 0 169.763668-32.507937 202.271605-92.10582 45.149912-84.881834 5.417989-198.659612-28.895944-251.033509-57.791887-84.881834-65.015873-108.359788-66.821869-111.971782 0-3.611993-1.805996-7.223986-3.611993-10.835979-3.611993-7.223986-9.029982-9.029982-14.447972-9.029982z m18.059965 21.671958z m0 0z m0 0z m-213.107584 0z m213.107584 0z m-213.107584 0zM605.008818 76.077601h-178.79365c-10.835979 0-18.059965 7.223986-18.059965 18.059965v90.299824c0 10.835979 7.223986 18.059965 18.059965 18.059964h178.79365c10.835979 0 18.059965-7.223986 18.059965-18.059964v-90.299824c0-9.029982-9.029982-18.059965-18.059965-18.059965z m-160.733686 36.11993h142.673722v54.179894h-142.673722v-54.179894zM577.918871 21.897707h-126.419753c-10.835979 0-18.059965 7.223986-18.059965 18.059965s7.223986 18.059965 18.059965 18.059965h126.419753c10.835979 0 18.059965-7.223986 18.059965-18.059965s-7.223986-18.059965-18.059965-18.059965zM512.902998 173.601411c-10.835979 0-18.059965 7.223986-18.059964 18.059965V388.514991L469.559083 366.843034c-3.611993-3.611993-9.029982-5.417989-16.253968-3.611993-5.417989 1.805996-10.835979 5.417989-12.641976 9.029982l-39.731922 77.657848c-3.611993 9.029982 0 19.865961 7.223986 23.477954 9.029982 3.611993 19.865961 0 23.477954-7.223985l28.895944-57.791888 37.925925 32.507937c5.417989 5.417989 12.641975 5.417989 19.865962 3.611993 7.223986-3.611993 10.835979-9.029982 10.835978-16.253968V191.661376c1.805996-10.835979-5.417989-18.059965-16.253968-18.059965zM570.694885 361.425044c-3.611993 0-5.417989 0-9.029982 1.805997-9.029982 5.417989-12.641975 16.253968-7.223986 23.477954l39.731923 77.657848c5.417989 9.029982 16.253968 12.641975 23.477954 7.223986 9.029982-5.417989 12.641975-16.253968 7.223986-23.477954L586.948854 372.261023c-3.611993-7.223986-9.029982-10.835979-16.253969-10.835979zM330.497354 650.38448c-5.417989 0-9.029982 1.805996-12.641975 5.417989l-27.089947 27.089947c-7.223986 7.223986-7.223986 18.059965 0 25.283951s18.059965 7.223986 25.283951 0l27.089947-27.089947c7.223986-7.223986 7.223986-18.059965 0-25.283951-3.611993-3.611993-7.223986-5.417989-12.641976-5.417989zM689.890653 632.324515c-5.417989 0-9.029982 1.805996-12.641976 5.417989-7.223986 7.223986-7.223986 18.059965 0 25.283951l27.089947 27.089947c7.223986 7.223986 18.059965 7.223986 25.283951 0 7.223986-7.223986 7.223986-18.059965 0-25.283951l-27.089947-27.089947c-3.611993-3.611993-7.223986-5.417989-12.641975-5.417989zM511.097002 672.056437c-10.835979 0-18.059965 7.223986-18.059965 18.059965V729.848325c0 10.835979 7.223986 18.059965 18.059965 18.059964s18.059965-7.223986 18.059964-18.059964v-39.731923c0-10.835979-9.029982-18.059965-18.059964-18.059965z"  horiz-adv-x="1024" />

    
    <glyph glyph-name="down-arrow" unicode="&#58909;" d="M641.773645 112.89037199999996H382.208958c-26.077935 0-47.178509 21.101597-47.178509 47.178509l23.588232 330.373383c0 26.077935 21.101597 47.178509 47.179532 47.178509H618.183368c26.076912 0 47.220465-21.100574 47.220464-47.178509l23.588231-330.373383c0-26.076912-21.141506-47.178509-47.218418-47.178509z m-35.363415 471.950866H417.613306c-19.567661 0-35.404348 15.835663-35.404348 35.404347V643.833817c0 19.526729 15.835663 35.405371 35.404348 35.405371h188.797947c19.526729 0 35.363416-15.879666 35.363416-35.405371v-23.589255c-0.001023-19.567661-15.83771-35.403325-35.364439-35.403324z m-11.815094 141.577482H429.386444c-13.016455 0-23.588231 10.570753-23.588231 23.588231v23.632234c0 13.016455 10.571776 23.588231 23.588231 23.588231h165.207669c13.018501 0 23.588231-10.571776 23.588231-23.588231v-23.632234c0.001023-13.018501-10.56973-23.588231-23.587208-23.588231zM571.005882 844.403878H453.017654c-13.059434 0-23.63121 10.5728-23.63121 23.590278 0 13.057387 10.571776 23.629163 23.63121 23.629163h117.988228c13.016455 0 23.588231-10.571776 23.588231-23.629163 0.001023-13.016455-10.570753-23.590278-23.588231-23.590278z m284.686854-626.294092L537.507954-112.762971c-6.922666-7.213285-15.504112-10.861372-25.496698-10.861372-10.031471 0-18.571984 3.648087-25.536606 10.861372L168.289867 218.10978599999999c-10.07445 10.486842-12.729929 25.039279-7.048533 38.430264 5.680373 13.349029 18.033725 21.515013 32.58514 21.515013h636.371612c14.550391 0 26.862811-8.167007 32.544207-21.515013 5.720282-13.389962 3.024893-27.943422-7.049557-38.430264z"  horiz-adv-x="1024" />

    
    <glyph glyph-name="yuandian3" unicode="&#59014;" d="M512 384m-221.25676291 0a221.25676291 221.25676291 0 1 1 442.51352582 0 221.25676291 221.25676291 0 1 1-442.51352583 0Z"  horiz-adv-x="1048" />

    
    <glyph glyph-name="qinziAPPtubiao-" unicode="&#58952;" d="M794.053805-127.445187h-1.479502c-46.357715 0.493167-92.71543 0.554813-139.13479 0.554813H582.608377c-47.344049 0-94.626452 0.061646-141.970502 0.616459a220.815604 220.815604 0 0 0-76.502558 16.151225c-41.487689 16.151225-65.159713 52.275721-64.974776 99.188249l0.184938 176.060683c0 97.462164 0.061646 194.985973 0.863042 292.448136 0.184938 26.569382 17.199205 51.351032 31.747638 64.481609 56.34435 51.474324 117.558726 115.770995 143.265065 202.445127 7.150924 24.165192 9.863344 50.796219 12.699055 78.968394C493.591701 859.443983 529.962781 896 578.539748 896c18.986936 0 38.097165-5.671423 56.714225-16.82933 37.480706-22.500753 62.50894-57.885498 76.317621-108.311842 22.130877-80.078021 10.788032-157.751851-1.602793-224.267774-1.849377-10.048281-3.945337-20.034917-6.16459-30.329781h192.643429c27.863946 0 67.810487-3.45217 92.468846-33.412077 17.938956-21.761002 22.99392-51.166095 15.411474-89.941364-23.178857-119.346457-51.53597-239.679249-78.660165-351.936428-8.445488-34.953224-22.500753-67.378966-36.062849-98.695081l-5.794715-13.438806c-15.534766-36.309434-47.405695-56.282704-89.756426-56.282704z m-140.614292 80.69448c46.665944 0 93.331889-0.061646 139.997833-0.554813l0.616459-40.069834v40.069834c12.822347 0 13.993619 2.835711 16.027933 7.644091l5.918006 13.747035c12.822347 29.528385 24.843297 57.39233 31.685991 85.687797 26.939257 111.332491 55.049786 230.617302 77.920415 348.422612 3.390524 17.260851 1.417856 23.302149 1.109626 24.103546-0.493167 0-7.459154 3.883692-30.329782 3.883691h-242.51496a40.193125 40.193125 0 0 0-39.145145 48.453675l5.979653 27.185841c3.883692 17.260851 7.459154 33.288785 10.418156 49.378364 10.788032 57.762206 20.774667 124.648004 3.205587 188.328216-8.322196 30.453073-20.774667 49.193426-40.316417 60.906147a31.007886 31.007886 0 0 1-15.47312 5.424839c-8.198904 0-10.294865-14.548432-10.788032-18.986937-3.205587-32.117512-6.411173-63.803504-15.719704-95.119619-31.25447-105.537776-101.592439-180.00602-166.197339-238.939498a24.473421 24.473421 0 0 1-5.794715-8.383842c-0.431521-94.749744-0.493167-192.02697-0.554813-289.304196l-0.184937-176.307267c-0.061646-17.384143 6.226236-21.267835 13.808681-24.226837 17.815664-6.90434 34.583348-10.603094 48.453675-10.788032 47.03582-0.493167 94.009993-0.616459 141.107459-0.616459l70.76949 0.061646zM206.814987-127.260249l-4.130275 0.061646a867.789296 867.789296 0 0 1-29.466739 0.554813l-34.829932-0.246584-13.500451 0.061646c-50.672928 0.431521-76.872434 25.151526-80.078021 75.701162-7.397508 116.079225-14.548432 232.158449-21.63771 348.237674C20.582731 339.337547 18.425125 381.503341 16.267519 423.730781l-0.431522 8.815363c-1.109626 20.897959 0.123292 44.693276 17.260851 62.817169 17.199205 18.18554 41.302751 20.713021 62.570586 20.836314l47.713925 0.123292 47.652278-0.123292c59.05677-0.184938 86.674132-27.49407 86.85907-85.934381 0.184938-57.39233 0.123292-114.784661 0.123291-172.176991l-0.123291-135.436037c-0.123292-57.885498-0.246584-115.832641 0.493167-173.718138 0.123292-9.061947 0.493167-36.740955-19.295166-56.714226-12.637409-12.945638-30.20649-19.480104-52.275721-19.480103z m-1.35621 78.413581l1.35621-38.343748v39.206791c-0.431521-0.246584-0.924688-0.493167-1.35621-0.863043z m-32.240804 2.40419c6.719403 0 14.301848-0.061646 24.658359-0.369875-0.308229 59.919812-0.184938 114.784661-0.061646 169.587863l0.123292 135.374391c0 57.269039 0.061646 114.538077-0.123292 171.868761l-0.123292 5.856361a106.400819 106.400819 0 0 1-6.90434 0.184937l-47.405695 0.123292-47.344049-0.123292h-0.123292l0.369875-8.26055c2.157606-41.91921 4.315213-83.83842 6.842695-125.819276 7.027632-116.017579 14.178556-232.035157 21.576064-348.052736v-0.678105h0.801397l12.822346-0.061646 34.891578 0.369875z"  horiz-adv-x="1024" />

    
    <glyph glyph-name="gouxuan" unicode="&#58910;" d="M1059.981057 896v-1024H0zM941.71897 231.609173l-227.360636-227.376536c-6.15849-6.14789-18.433071-12.253381-30.750051-12.253381-12.258681 0-24.586261 6.105491-30.691751 12.253381l-110.656723 116.762213c-6.100191 6.16909-12.258681 18.43837-12.258681 30.755351 0 12.258681 6.15849 24.527962 12.258681 30.691751 18.47547 18.422471 43.07233 18.422471 61.494801 0l79.853673-79.858973 196.631786 196.626486c18.47017 18.427771 43.008731 18.427771 61.494801 0 6.100191-6.15849 12.258681-18.47547 12.258681-30.75005-0.0106-18.44367-0.0106-30.702351-12.274581-36.850242z"  horiz-adv-x="1059" />

    
    <glyph glyph-name="tubiao_huabanfuben" unicode="&#58940;" d="M512 864C243.2 864 32 652.8 32 384s217.6-480 480-480 480 217.6 480 480S780.8 864 512 864zM332.8 505.6c0-19.2 12.8-32 32-32s32 12.8 32 32-12.8 32-32 32-32-19.2-32-32zM473.6 505.6c0-19.2 12.8-32 32-32s32 12.8 32 32-12.8 32-32 32-32-19.2-32-32zM550.4 364.8c0-12.8 12.8-19.2 19.2-19.2 12.8 0 19.2 12.8 19.2 19.2 6.4 12.8-6.4 19.2-19.2 19.2-6.4 0-19.2-6.4-19.2-19.2zM659.2 358.4c0-12.8 12.8-19.2 19.2-19.2 12.8 0 19.2 12.8 19.2 19.2s0 25.6-12.8 25.6-25.6-12.8-25.6-25.6zM512 864C243.2 864 32 652.8 32 384s217.6-480 480-480 480 217.6 480 480S780.8 864 512 864zM428.8 275.2c-25.6 0-44.8 0-70.4 6.4l-70.4-32 19.2 57.6C256 345.6 230.4 390.4 230.4 448c0 96 89.6 172.8 204.8 172.8 96 0 185.6-57.6 204.8-140.8h-19.2C524.8 480 448 409.6 448 320c0-12.8 0-32 6.4-44.8h-25.6z m294.4-70.4l12.8-51.2-57.6 32c-19.2-6.4-38.4-12.8-57.6-12.8-96 0-172.8 64-172.8 147.2s76.8 147.2 172.8 147.2c89.6 0 172.8-64 172.8-147.2 0-44.8-25.6-89.6-70.4-115.2zM512-108.8C236.8-108.8 19.2 115.2 19.2 384 19.2 659.2 243.2 876.8 512 876.8c275.2 0 492.8-224 492.8-492.8 0-275.2-217.6-492.8-492.8-492.8z m0 960C256 851.2 44.8 640 44.8 384S256-83.2 512-83.2 979.2 128 979.2 384 768 851.2 512 851.2z"  horiz-adv-x="1024" />

    
    <glyph glyph-name="dianzan1" unicode="&#58911;" d="M936.2508600796177 485.0996417000824h-270.6830966356982c104.88753969757875 387.37266443663384-72.26699796302074 407.1574008457891-72.26699796302074 407.1574008457891-75.0839623385957 0-59.51917367779203-59.37306230750286-65.19709294902898-69.27250041709446 0-189.4420325749172-201.21578105821823-337.88647151869765-201.21578105821823-337.88647151869765v-537.2279422032066c0-53.03057196495071 72.26699796302074-72.12874204274712 100.6157459791246-72.12874204274712h406.7017847448873c38.27646574575144 0 69.44532031743647 100.38008247865825 69.44532031743647 100.38008247865825 100.61731706912775 342.1362699771083 100.61731706912775 443.9334756385711 100.61731706912775 443.9334756385711 0.0015710900031092822 70.68805250989593-68.01719950461015 65.03998394871806-68.01719950461015 65.03998394871806v0 0zM936.2508600796177 485.0996417000824zM215.8055438938133 484.922108529731h-162.08464235077525c-33.473643606246355 0-33.99053221726932-32.878200495067944-33.99053221726932-32.878200495067944l33.473643606246355-541.8123828322794c0-34.48542556824874 34.543555898363785-34.48542556824874 34.543555898363785-34.48542556824874h140.2841974676309c29.22541623783886 0 28.966186387325827 22.81222684514677 28.966186387325827 22.81222684514677v545.2766362891354c0 41.61188982235244-41.19555097152849 41.08557467131084-41.19555097152849 41.08557467131084v0 0zM215.8055438938133 484.922108529731z"  horiz-adv-x="1024" />

    
    <glyph glyph-name="xialashuaxinbf" unicode="&#58933;" d="M511.9 831.1c-24.4 0-44.2-19.8-44.1-44.1v-135.5c0-24.3 19.7-44 44.1-44 24.3 0 44.1 19.7 44.1 44V787.1c0 24.3-19.7 44-44.1 44zM632.4 570.7c21.1-12.1 48.1-4.9 60.3 16.2l67.9 117.5c12.2 21.1 4.9 48.1-16.2 60.2-21.1 12.1-48 4.9-60.3-16.3l-67.9-117.4c-12.1-21.1-4.9-48.1 16.2-60.2zM697.4 491.2c12.2-21.1 39.2-28.3 60.3-16.2l117.5 67.8c21.2 12.1 28.3 39.2 16.2 60.2-12.2 21.1-39.2 28.3-60.3 16.2l-117.5-67.8c-21.2-12.1-28.3-39.1-16.2-60.2zM915.2 436.3H779.5c-24.3 0-44.1-19.7-44.1-44s19.7-44 44.1-44h135.7c24.3 0 44.1 19.7 44.1 44s-19.7 44.1-44.1 44zM875.2 224.4l-117.5 67.8c-21.1 12.1-48.1 4.9-60.3-16.2-12.2-21.1-4.9-48.1 16.2-60.2L831.1 148c21.1-12.1 48.1-4.9 60.3 16.2 12.2 21.1 4.9 48.1-16.2 60.2zM692.7 163.2c-12.2 21.1-39.2 28.3-60.3 16.2-21.2-12.1-28.3-39.1-16.2-60.2l67.9-117.4c12.2-21.2 39.2-28.3 60.3-16.2 21.2 12.2 28.3 39.2 16.2 60.2l-67.9 117.4zM511.9 159.9c-24.3 0-44.1-19.7-44.1-44v-135.5c0-24.3 19.7-44 44.1-44 24.3 0 44.1 19.8 44.1 44V115.8c0 24.3-19.7 44.1-44.1 44.1zM391.4 179.3c-21.1 12.1-48.1 4.9-60.3-16.2l-67.9-117.4c-12.2-21.1-4.9-48.1 16.2-60.2 21.1-12.1 48.1-4.9 60.3 16.2l67.9 117.4c12.1 21.1 4.8 48.1-16.2 60.2zM308.7 276.1c-12.2 21.1-39.2 28.3-60.3 16.2l-117.5-67.8c-21.2-12.1-28.3-39.1-16.2-60.2 12.2-21.1 39.2-28.3 60.3-16.2l117.5 67.8c21.2 12.1 28.4 39.1 16.2 60.2zM288.4 392.2c0 24.3-19.7 44-44.1 44H108.5c-24.3 0-44.1-19.7-44.1-44s19.8-44 44.1-44h135.7c24.4 0 44.2 19.6 44.2 44zM130.9 542.9l117.5-67.8c21.1-12.1 48.1-4.9 60.3 16.2 12.2 21.1 4.9 48.1-16.2 60.2L175 619.3c-21.1 12.1-48.1 4.9-60.3-16.2-12.1-21.1-4.9-48.1 16.2-60.2zM339.6 748.4c-12.2 21.1-39.2 28.3-60.3 16.2-21.1-12.2-28.4-39.2-16.2-60.2L331 587c12.2-21.1 39.2-28.3 60.3-16.2 21.2 12.1 28.4 39.2 16.2 60.2l-67.9 117.4z"  horiz-adv-x="1024" />

    
    <glyph glyph-name="bi" unicode="&#58922;" d="M125.117882-16.222354c-5.230075 0-10.21689 2.310963-13.74415 6.081482-3.52726 3.770519-5.473334 9.000594-5.108445 14.230669l11.433187 194.120917c0.364889 4.621927 2.310963 9.122224 5.594963 12.406224L701.885669 788.96591c3.52726 3.648889 8.392446 5.716593 13.500891 5.716594 5.108445 0 9.973631-2.067704 13.500891-5.716594l182.444471-182.44447c3.52726-3.648889 5.473334-8.514075 5.594964-13.500891 0-5.108445-1.946074-9.973631-5.594964-13.500891L332.73969 0.805796c-3.284-3.284-7.784297-5.351704-12.406224-5.716593L126.212549-16.222354h-1.094667m30.042523 204.824326l-9.730372-165.41632 165.294691 9.730371 559.982896 559.982896L715.26493 748.341608 155.160405 188.601972z m639.893574 300.546858c-5.108445-0.12163-9.973631 1.824445-13.500891 5.351705L617.109805 658.943818c-6.81126 7.541038-6.568001 19.217484 0.608148 26.393633 7.176149 7.176149 18.852595 7.541038 26.393634 0.608148l164.443283-164.321653c7.419408-7.419408 7.419408-19.582373 0-27.001782-3.648889-3.40563-8.514075-5.351704-13.500891-5.473334M258.180716 116.71885c-4.986816 0-9.852001 1.946074-13.500891 5.351705-3.648889 3.52726-5.594964 8.392446-5.594963 13.500891 0 5.108445 2.067704 9.973631 5.594963 13.50089l451.73251 451.610881c4.743556 5.230075 12.041335 7.419408 18.852595 5.716593 6.81126-1.702815 12.162965-7.05452 13.86578-13.86578 1.702815-6.81126-0.486519-14.109039-5.716593-18.852595L271.681607 122.192184c-3.648889-3.52726-8.514075-5.473334-13.500891-5.473334M146.767959 97.866255c-2.554223 0-5.230075-0.243259-7.784297-0.243259-2.554223 0-4.743556-1.094667-7.176149-1.337927l-5.594964-94.384606 90.370828 5.351705c0.729778 3.284 1.581185 7.05452 2.189333 10.581779 2.797482 20.55541-3.52726 41.23245-17.393039 56.679416-13.987409 15.446965-33.934672 23.961041-54.611712 23.352892"  horiz-adv-x="1024" />

    
    <glyph glyph-name="sanjiaoxing1" unicode="&#58912;" d="M496.64 290.81600000000003l-418.304-418.816L915.456-128z"  horiz-adv-x="1024" />

    
    <glyph glyph-name="bi1" unicode="&#58913;" d="M79.36-20.48H422.4v-51.2H79.36z m471.04 0h376.32v-51.2H550.4z m79.36 757.76L844.8 522.24 373.76 51.2 158.72 266.24l471.04 471.04z m87.04 84.48l215.04-215.04-64-64L652.8 757.76l64 64z m0 0M138.24 243.2l215.04-215.04L51.2-56.32l87.04 299.52zM798.72 824.32L931.84 691.2c23.04-23.04 20.48-58.88-2.56-81.92s-61.44-25.6-81.92-2.56L714.24 739.84c-23.04 20.48-23.04 58.88 2.56 81.92 23.04 23.04 58.88 25.6 81.92 2.56z m0 0"  horiz-adv-x="1024" />

    
    <glyph glyph-name="dagou" unicode="&#58914;" d="M808.542684 524.730822L468.094825 178.676986c-8.043464-8.167528-19.152032-13.227381-31.419744-13.227381s-23.371414 5.059853-31.419744 13.227381L212.859276 374.288974C204.820677 382.417579 199.845966 393.707377 199.845966 406.17943c0 24.939239 19.892765 45.121486 44.385618 45.121486 12.267712 0 23.381145-5.054988 31.424609-13.227381l161.018888-163.63639L745.750633 588.601741c8.043464 8.129822 19.152032 13.18481 31.414878 13.184811 24.492853 0 44.395349-20.221169 44.395348-45.117838 0-12.472052-4.973495-23.765499-13.018175-31.937892z m0 0"  horiz-adv-x="1024" />

    
    <glyph glyph-name="zhengfangxing" unicode="&#58931;" d="M115.2 771.01056h803.84v-803.84h-803.84z"  horiz-adv-x="1024" />

    
    <glyph glyph-name="zhuanfa" unicode="&#58946;" d="M237.136842 98.357895c-21.557895 0-32.336842 10.778947-43.115789 21.557894-10.778947 32.336842-10.778947 75.452632-10.778948 140.126316 0 215.578947 172.463158 388.042105 388.042106 388.042106v107.789473c0 21.557895 10.778947 32.336842 32.336842 43.11579 21.557895 10.778947 43.115789 0 64.673684-10.778948l280.252631-247.915789s21.557895-21.557895 21.557895-43.11579-10.778947-32.336842-21.557895-43.115789L657.515789 206.147368c-10.778947-10.778947-21.557895-21.557895-43.115789-21.557894-32.336842 0-53.894737 21.557895-53.894737 53.894737V357.052632C431.157895 357.052632 323.368421 270.821053 291.031579 130.694737c-10.778947-10.778947-21.557895-32.336842-53.894737-32.336842z m334.147369 495.831579c-183.242105 0-334.147368-150.905263-334.147369-334.147369v-64.673684c53.894737 140.126316 183.242105 226.357895 323.368421 226.357895h64.673684v-161.684211l269.473685 247.91579-269.473685 226.357894v-150.905263l-53.894736 10.778948z m53.894736 161.68421zM905.431579-74.105263H161.684211C75.452632-74.105263 10.778947-9.431579 10.778947 76.8V249.263158h53.894737v-172.463158c0-53.894737 43.115789-97.010526 97.010527-97.010526h743.747368c53.894737 0 97.010526 43.115789 97.010526 97.010526V249.263158h53.894737v-172.463158c0-86.231579-64.673684-150.905263-150.905263-150.905263z"  horiz-adv-x="1067" />

    
    <glyph glyph-name="icon-Heart" unicode="&#58915;" d="M85.333333 533.333333c0 128 99.555556 227.555556 220.444445 234.666667 85.333333 0 163.555556-49.777778 206.222222-128 35.555556 78.222222 113.777778 128 199.111111 128 120.888889 0 227.555556-106.666667 227.555556-234.666667 0-334.222222-348.444444-533.333333-426.666667-533.333333s-426.666667 206.222222-426.666667 533.333333z"  horiz-adv-x="1024" />

    
    <glyph glyph-name="shoucang" unicode="&#59073;" d="M773.461-109.431c-14.404 0-30.583 4.13-45.602 11.639L513.57 9.387 297.95-97.621c-13.653-7.27-29.287-11.094-45.227-11.094a96.256 96.256 0 0 0-57.549 18.842c-30.173 22.63-45.636 61.85-38.502 97.553l44.1 228.762-169.028 157.56A104.073 104.073 0 0 0 5.461 494.66l0.342 1.16c12.288 36.83 42.769 62.635 79.735 67.585l234.837 42.7L425.78 820.19c16.93 33.894 51.37 55.671 87.791 55.671 37.99 0 73.319-22.596 88.132-56.286l105.063-213.401 234.871-41.063a95.676 95.676 0 0 0 78.268-68.369 98.987 98.987 0 0 0-24.474-101l-0.58-0.58-168.55-158.72 42.598-229.172c6.86-36.659-7.714-73.66-38.059-96.733a90.283 90.283 0 0 0-57.378-19.968zM513.673 71.714l239.104-119.569c7.031-3.55 15.12-5.768 20.65-5.768 8.534 0 16.452 2.628 22.255 7.475l1.092 0.887c13.585 10.206 20.207 26.385 17.238 42.257l-48.128 259.209L956.21 435.439c11.674 11.844 15.667 28.808 10.48 44.407l-0.513 1.639a39.185 39.185 0 0 1-32.529 28.365l-1.092 0.17-263.339 46.046L550.708 796.81c-5.77 13.448-21.368 23.21-37.138 23.21-15.496 0-30.31-9.694-37.82-24.678L357.99 556.169 93.252 508.075c-16.077-2.014-28.57-12.698-34.338-29.355-4.096-15.223 0.751-33.553 11.947-44.988l190.532-177.561-50.005-259.345c-3.004-14.985 4.096-32.256 17.237-42.12 6.588-4.95 15.121-7.68 24.064-7.68 6.895 0 13.517 1.603 19.217 4.675l0.82 0.478 240.947 119.535z"  horiz-adv-x="1024" />

    
    <glyph glyph-name="QQ" unicode="&#58916;" d="M512-47.632c238.384 0 431.632 193.248 431.632 431.632 0 238.384-193.248 431.632-431.632 431.632-238.384 0-431.632-193.248-431.632-431.632 0-238.384 193.248-431.632 431.632-431.632z m0-18.368C263.472-66 62 135.472 62 384S263.472 834 512 834s450-201.472 450-450-201.472-450-450-450zM701.27 318.594s-12.792 47.616-36.246 76.64c0 0 12.792 24.034-8.53 57.14 0 0-5.116 142.85-144.56 142.85-139.448 0-144.564-142.85-144.564-142.85-21.32-33.104-8.528-57.14-8.528-57.14-23.454-29.024-36.248-76.64-36.248-76.64-11.94-58.048 10.66-68.478 14.072-69.384 3.412-0.908 11.088 8.162 13.646 12.244 2.56 4.08 8.104 17.232 9.382 18.14 1.28 0.906 3.412-6.802 3.412-6.802C372.06 243.312 391.25 222 391.25 222c-19.188-7.256-32.408-21.314-32.408-21.314s-24.308-37.188 40.51-44.444c64.82-7.256 107.464 15.42 107.464 15.42h10.234s42.644-22.676 107.46-15.42c64.82 7.256 40.514 44.444 40.514 44.444s-13.22 14.058-32.41 21.314c0 0 19.19 21.314 28.144 50.792 0 0 2.134 7.708 3.412 6.8 1.28-0.906 6.824-14.058 9.382-18.138 2.56-4.08 10.234-13.152 13.646-12.244 3.412 0.906 26.012 11.336 14.072 69.384z"  horiz-adv-x="1024" />

    
    <glyph glyph-name="shoucang1" unicode="&#58918;" d="M752-43.2c-9.6 0-20.8 3.2-30.4 8l-208 104-209.6-104c-20.8-11.2-48-9.6-67.2 4.8-19.2 14.4-30.4 40-25.6 64l43.2 224L89.6 411.2C72 428.8 65.6 456 72 478.4c8 24 27.2 41.6 52.8 44.8l228.8 41.6 102.4 208c11.2 22.4 33.6 36.8 57.6 36.8s48-14.4 57.6-36.8l102.4-208 228.8-40c24-3.2 44.8-20.8 51.2-44.8 8-24 1.6-49.6-16-67.2L772.8 257.6l41.6-224c4.8-25.6-6.4-49.6-25.6-64-9.6-8-22.4-12.8-36.8-12.8z"  horiz-adv-x="1024" />

    
    <glyph glyph-name="brand" unicode="&#58919;" d="M511.808 777.888C247.872 777.888 33.92 564 33.92 300c0-263.936 213.952-477.888 477.888-477.888S989.632 36.128 989.632 300C989.632 564 775.744 777.888 511.808 777.888zM830.272-18.528c-41.344-41.344-89.472-73.856-143.104-96.512-55.488-23.488-114.432-35.392-175.296-35.392-60.8 0-119.808 11.904-175.36 35.392-53.632 22.656-101.824 55.104-143.168 96.512-41.344 41.344-73.856 89.6-96.512 143.232C73.28 180.128 61.376 239.2 61.376 300c0 60.8 11.904 119.744 35.392 175.296 22.656 53.632 55.168 101.76 96.512 143.168 41.344 41.344 89.536 73.856 143.168 96.512 55.552 23.424 114.56 35.392 175.36 35.392 60.864 0 119.808-11.968 175.296-35.392 53.632-22.656 101.76-55.168 143.104-96.512 41.344-41.408 73.856-89.536 96.64-143.168C950.272 419.808 962.24 360.864 962.24 300c0-60.864-12.032-119.936-35.392-175.296C904.128 71.136 871.616 22.88 830.272-18.528zM238.016 485.024l11.776 0c175.232 0 350.464-0.064 525.632 0.128 7.872 0 10.24-1.92 10.24-10.176-0.128-116.864-0.128-233.792 0-350.592 0-7.488-2.24-9.472-9.408-9.472-176.32 0.256-352.704 0.256-529.024 0.128-6.144 0-9.344 0.64-9.344 8.384C238.208 239.968 238.08 356.512 238.016 473.12L238.016 485.024 238.016 485.024zM281.28 460.896C284.672 457.376 286.08 455.776 287.872 454.112c58.816-54.08 117.504-108.16 176.512-162.24 9.344-8.64 19.008-17.28 29.504-24.768 11.904-8.384 25.152-8.512 36.8 0.64 12.288 9.472 23.808 19.84 35.2 30.336 56.128 51.264 112.128 102.784 168.128 154.368 2.432 2.176 4.352 4.736 7.552 8.576C587.52 460.896 435.648 460.896 281.28 460.896L281.28 460.896zM280.576 142.112c0.96-1.152 1.792-2.112 2.688-3.264l457.408 0c0.64 0.896 1.216 1.728 1.6 2.752-3.136 2.368-6.592 4.608-9.472 7.36-47.104 43.136-94.336 86.144-140.992 129.472C585.6 284.128 582.272 283.296 576.704 278.176c-11.968-10.88-24.192-21.376-37.056-31.104C521.664 233.504 502.656 233.12 484.48 246.752 471.296 256.8 458.688 267.744 446.208 278.88 440.96 283.744 437.76 283.616 432.448 278.752c-47.296-43.776-94.848-87.232-142.4-130.752C287.424 145.632 283.776 143.968 280.576 142.112L280.576 142.112zM423.04 300C369.984 348.576 317.888 396.512 264.384 445.536l0-291.328C318.144 203.616 370.112 251.36 423.04 300L423.04 300zM759.744 442.464c-0.896 0.448-1.664 0.896-2.432 1.344C705.344 396 653.568 348.256 600.832 299.936c53.184-48.832 105.088-96.576 158.848-145.92C759.744 252 759.744 347.168 759.744 442.464L759.744 442.464zM759.744 442.464"  horiz-adv-x="1024" />

    
    <glyph glyph-name="mima" unicode="&#58920;" d="M880.42328-94.610229l-0.451499 481.749559c0 22.123457-18.511464 40.183422-41.08642 40.183422-0.451499 0-0.451499 0-0.902998 0 0 0-0.451499 0-0.451499 0L347.202822 426.871252l-0.451499 122.356261c0 0 0 0 0 0.451499l0.451499 0c0.451499 88.042328 73.594356 159.830688 163.89418 159.830688 87.590829 0 159.379189-67.724868 163.442681-152.606702-0.451499-2.257496-0.902998-4.96649-0.902998-7.675485l0.451499-1.354497c0-22.123457 18.511464-40.634921 41.08642-40.634921 22.574956 0 41.08642 18.059965 41.08642 40.634921l-0.451499 1.354497c0 1.805996 0 3.611993-0.451499 5.417989-2.257496 130.934744-111.068783 236.134039-245.164021 236.134039C376.550265 790.328042 268.190476 685.580247 265.029982 555.097002c-0.451499-1.805996-0.451499-4.063492-0.451499-5.869489l0.451499-122.356261-80.818342 0c-0.451499 0-0.902998 0-1.354497 0-18.511464 0-33.862434-11.738977-39.280423-27.992945-1.354497-3.611993-1.805996-7.675485-1.805996-11.738977 0 0 0 0 0 0s0 0 0 0l0.451499-483.104056c0-22.123457 18.511464-40.183422 41.08642-40.183422 1.805996 0 3.611993 0 5.417989 0.451499l648.804233 0.451499c7.675485 0 14.447972 1.805996 20.31746 5.417989C871.393298-123.506173 880.42328-110.412698 880.42328-94.610229zM223.943563-4.310406 223.492063 297.291005c6.320988 39.280423 26.638448 48.310406 77.206349 49.213404 1.805996 0 3.160494-0.451499 4.96649-0.451499 1.805996 0 4.063492 0 5.869489 0.451499l432.084656 0.451499c32.959436-3.160494 48.310406-14.447972 54.179894-44.698413l0.451499-311.534392c-4.96649-28.895944-18.059965-41.537919-46.05291-46.504409L275.414462-55.781305C242.455026-51.717813 228.458554-38.624339 223.943563-4.310406z"  horiz-adv-x="1024" />

    
    <glyph glyph-name="boshimao-copy" unicode="&#58921;" d="M1016.842 523.523l-503.268 240.412-506.42-240.412 506.42-240.421 395.632 188.997v-280.079h41.001v299.671l66.634 31.831zM513.535 344.629l-376.829 178.895 376.829 178.891 374.482-178.891-374.482-178.895zM782.102 136.491c-60.659-36-125.734-58.649-193.639-67.353-58.245-7.468-118.722-4.785-179.753 8.005-72.309 15.148-132.967 42.506-163.713 59.6v183.833h-41.002v-222.182l12.106-7.732c3.037-1.941 75.59-47.72 185.266-70.954 41.010-8.684 81.817-13.037 121.973-13.037 22.89 0 45.566 1.417 67.94 4.249 77.27 9.783 151.156 36.593 219.614 79.682l12.208 7.683v222.29h-41.001v-184.085h-0.001zM782.102 136.491z"  horiz-adv-x="1024" />

    
    <glyph glyph-name="1" unicode="&#58954;" d="M826.732659 37.393911 197.266317 37.393911c-62.301951 0-112.988354 50.686403-112.988354 112.987331L84.277964 617.618758c0 62.301951 50.686403 112.988354 112.988354 112.988354l629.466342 0c62.301951 0 112.988354-50.686403 112.988354-112.988354l0-467.237517C939.721013 88.080314 889.034611 37.393911 826.732659 37.393911zM197.266317 659.584546c-23.141046 0-41.966811-18.825764-41.966811-41.966811l0-467.237517c0-23.14207 18.825764-41.966811 41.966811-41.966811l629.466342 0c23.140023 0 41.967834 18.824741 41.967834 41.966811L868.700493 617.618758c0 23.140023-18.826787 41.966811-41.967834 41.966811L197.266317 659.585569zM288.295544 497.37414m-56.493665 0a55.207 55.207 0 1 0 112.987331 0 55.207 55.207 0 1 0-112.987331 0ZM848.675414 242.849236 723.293799 501.674073c-4.913916 10.145058-14.352893 17.35425-25.434276 19.425422-11.090593 2.069125-22.491247-1.243317-30.733978-8.930393L508.192789 364.03018l-99.498108 66.473971c-14.204513 9.491165-33.155121 7.519254-45.104267-4.689812L193.673489 252.206348c-9.997702-10.213619-12.896728-25.428136-7.355525-38.603203 5.541203-13.174044 18.441001-21.74628 32.733519-21.74628l597.667102 0c12.226462 0 23.595394 6.29231 30.089295 16.651238C853.299735 218.872149 854.006839 231.843578 848.675414 242.849236z"  horiz-adv-x="1024" />

    
    <glyph glyph-name="fz" unicode="&#58923;" d="M960.279273 383.96897C894.293333 383.96897 850.245818 434.827636 826.33697 473.413818 802.288485 434.858667 758.116848 383.96897 692.565333 383.96897 626.843152 383.96897 582.62497 435.122424 558.62303 473.739636 534.465939 435.153455 490.123636 383.96897 424.851394 383.96897 359.222303 383.96897 315.035152 434.998303 290.986667 473.56897 266.969212 434.998303 222.782061 383.96897 157.137455 383.96897 54.597818 383.96897 0 465.37697 0 524.132848 0 594.556121 122.181818 853.333333 136.114424 882.625939 139.977697 890.740364 148.154182 895.906909 157.137455 895.906909L958.43297 895.906909C967.369697 895.906909 975.515152 890.786909 979.409455 882.750061 993.528242 853.457455 1117.416727 594.602667 1117.416727 524.132848 1117.416727 465.37697 1062.818909 383.96897 960.279273 383.96897ZM139.667394 337.43903C152.529455 337.43903 162.955636 327.028364 162.955636 314.166303L162.955636-81.408 419.033212-81.408 419.033212 102.818909C419.033212 166.958545 471.241697 219.151515 535.427879 219.151515L581.988848 219.151515C646.159515 219.151515 698.383515 166.958545 698.383515 102.818909L698.383515-81.408 954.461091-81.408 954.461091 314.166303C954.461091 327.028364 964.887273 337.43903 977.733818 337.43903 990.595879 337.43903 1001.022061 327.028364 1001.022061 314.166303L1001.022061-127.953455 116.394667-127.953455 116.394667 314.166303C116.394667 327.028364 126.820848 337.43903 139.667394 337.43903ZM651.822545 102.818909C651.822545 141.312 620.497455 172.621576 581.988848 172.621576L535.427879 172.621576C496.919273 172.621576 465.594182 141.312 465.594182 102.818909L465.594182-81.408 651.822545-81.408 651.822545 102.818909Z"  horiz-adv-x="1118" />

    
    <glyph glyph-name="shezhi" unicode="&#59054;" d="M949.632045 471.364311c-5.233252 27.65425-22.120602 45.521736-43.020632 45.521736-0.267219 0-0.538435-0.002598-0.686135-0.007595l-3.848191 0c-60.44242 0-109.617679 49.17406-109.617679 109.617679 0 19.615301 9.461985 41.606191 9.543529 41.795862 10.831856 24.382669 2.498906 54.282596-19.364671 69.536654l-1.323902 0.931768-111.090481 61.712959-1.405447 0.616182c-7.235494 3.145467-15.154925 4.740586-23.54004 4.740586-17.183949 0-34.084091-6.896924-45.199755-18.437899-12.184939-12.577073-54.241824-48.477732-86.558913-48.477732-32.608691 0-74.915008 36.605781-87.152111 49.415896-11.174224 11.776416-28.209274 18.807049-45.566306 18.807049-8.220826 0-15.997554-1.538957-23.109732-4.5725l-1.443621-0.612385-115.010223-63.175567-1.358279-0.941961c-21.934728-15.240067-30.314847-45.113213-19.494383-69.48309 0.095535-0.219051 9.571511-22.090023 9.571511-41.853024 0-60.443819-49.17406-109.617679-109.617679-109.617679l-3.787032 0c-0.263421 0.005196-0.525644 0.008994-0.786667 0.008994-20.879444 0-37.751604-17.868885-42.983457-45.528132-0.381941-2.027825-9.35126-50.108426-9.35126-87.71353 0-37.603905 8.969519-85.681908 9.352659-87.714729 5.23585-27.655649 22.118004-45.524335 43.011438-45.524335 0.26482 0 0.538435 0.005196 0.696328 0.010193l3.848191 0c60.443819 0 109.617679-49.17406 109.617679-109.61648 0-19.639484-9.459586-41.603593-9.543529-41.795862-10.822862-24.362482-2.514095-54.261011 19.337889-69.55704l1.297121-0.903787 108.973716-60.940083 1.385061-0.609787c7.233096-3.176247 15.130741-4.786355 23.472486-4.786355 17.425785 0 34.448244 7.196121 45.534528 19.251148 15.476907 16.818597 57.468836 51.546851 88.482409 51.546851 33.580033 0 76.643835-38.931604 89.07061-52.556167 11.110667-12.258888 28.248647-19.581124 45.850313-19.586121l0.004997 0c8.178855 0 15.935196 1.556944 23.056168 4.627263l1.414241 0.610986 112.958014 62.432271 1.336694 0.932967c21.897753 15.255457 30.253688 45.131001 19.456209 69.444916-0.095535 0.22145-9.584302 22.385423-9.584302 41.8876 0 60.44242 49.175259 109.61648 109.617679 109.61648l3.733669 0.001199c0.248232-0.004997 0.495264-0.007595 0.743496-0.007595 20.938004 0.001199 37.844541 17.870084 43.069999 45.506547 0.092937 0.487469 9.361453 49.186651 9.361453 87.732717C958.985904 421.427768 950.013787 469.341482 949.632045 471.364311zM375.448142 25.489614l-95.325969 53.30346c4.200752 10.788485 12.760348 35.970612 12.760348 62.006959 0 90.4123-69.577427 165.16182-159.186472 172.037159-2.188316 12.751554-7.334827 45.433996-7.334827 70.809591 0 25.340019 5.144112 58.051841 7.33103 70.813389 89.612842 6.870342 159.190269 81.619862 159.190269 172.037159 0 25.967594-8.513628 51.079768-12.705586 61.872051l101.437625 55.713426c0.002598 0 0.003797-0.001199 0.006396-0.001199 3.655921-3.734868 18.285203-18.250826 38.483508-32.644267 33.004623-23.526049 64.433314-35.455161 93.413865-35.455161 28.695544 0 59.874605 11.697469 92.670569 34.769027 20.071192 14.117428 34.630321 28.353177 38.277248 32.025687 0.007595 0.001199 0.01519 0.003797 0.021585 0.005196l97.784102-54.326966c-4.196954-10.791084-12.742561-35.955422-12.742561-61.958592 0-90.417297 69.576027-165.166817 159.18887-172.037159 2.187117-12.780735 7.333628-45.549917 7.333628-70.813389 0-25.365402-5.144112-58.059436-7.331229-70.814788-89.611643-6.868943-159.190269-81.618463-159.190269-172.037159 0-25.995575 8.527818-51.124138 12.723573-61.912823l-99.008672-54.717901c-4.272104 4.538323-18.683533 19.311107-38.633806 34.127262-33.64239 24.982262-65.846356 37.649674-95.716904 37.649674-29.584142 0-61.544873-12.430772-94.994993-36.943153C394.238802 44.584268 379.72924 29.953787 375.448142 25.489614zM667.875077 384.22739c0 87.453906-71.151959 158.602068-158.608463 158.602068-87.453906 0-158.602068-71.148162-158.602068-158.602068s71.148162-158.603467 158.602068-158.603467C596.724317 225.623923 667.875077 296.773484 667.875077 384.22739zM509.266613 479.896926c52.756231 0 95.676132-42.917302 95.676132-95.669736 0-52.756231-42.9199-95.676132-95.676132-95.676132-52.752434 0-95.669736 42.9199-95.669736 95.676132C413.597077 436.981023 456.514379 479.896926 509.266613 479.896926z"  horiz-adv-x="1024" />

    
    <glyph glyph-name="fanhui" unicode="&#59081;" d="M853.6 606.7c-51.3 51.3-119.2 79.5-191.2 79.5H376.8V815.6c0 10.9-11.8 17.7-21.3 12.3L93.3 676.5c-9.4-5.5-9.4-19.1 0-24.5l262.2-151.4c9.4-5.5 21.3 1.4 21.3 12.3V642.3h285.6c125.2 0 226.7-101.5 226.7-226.7v-107.6c0-125.2-101.5-226.7-226.7-226.7H174c-7.8 0-14.2-6.3-14.2-14.2v-15.7c0-7.8 6.3-14.2 14.2-14.2h488.4c72 0 139.9 28.2 191.2 79.5 51.3 51.3 79.5 119.2 79.5 191.2V415.3c0 72.2-28.3 140.1-79.5 191.4z"  horiz-adv-x="1024" />

    
    <glyph glyph-name="shandian" unicode="&#58983;" d="M584.763392 775.88992h0.879616m-0.879616 0l-63.121408-332.269568 229.700608-0.879616-312.105984-450.63168 63.121408 365.585408-229.700608 0.879616 312.105984 417.31584z m0 56.11008h-4.380672c-12.27264-1.75104-24.544256-7.011328-35.946496-20.163584l-2.630656-3.501056-314.73664-415.563776c-13.152256-18.413568-14.903296-38.577152-4.389888-58.740736 9.6512-18.413568 28.935168-30.685184 49.978368-30.685184l162.189312-0.879616-51.720192-300.713984c-4.389888-25.424896 9.641984-50.848768 33.306624-61.370368 7.020544-3.510272 14.911488-4.380672 22.803456-4.380672 16.653312 0 31.556608 7.890944 42.957824 22.79424l314.73664 450.630656c13.152256 18.412544 14.903296 38.577152 4.389888 58.740736-10.5216 20.163584-27.184128 30.685184-49.978368 30.685184H589.15328l50.848768 263.896064c0.8704 4.380672 1.75104 8.762368 1.75104 13.14304 0 30.685184-25.424896 56.11008-54.35904 56.11008h-2.630656z"  horiz-adv-x="1024" />

    
    <glyph glyph-name="camera" unicode="&#59138;" d="M422.5 323.7c-5 0-9 4-9 9 0 54.3 44.2 98.6 98.6 98.6 5 0 9-4 9-9s-4-9-9-9c-44.5 0-80.6-36.2-80.6-80.6 0-5-4-9-9-9zM512.1 135.6c-108.7 0-197.1 88.4-197.1 197.1s88.4 197.1 197.1 197.1 197.1-88.4 197.1-197.1-88.4-197.1-197.1-197.1zM512.1 494c-88.9 0-161.3-72.3-161.3-161.3s72.3-161.3 161.3-161.3 161.3 72.3 161.3 161.3-72.3 161.3-161.3 161.3zM870.6-7.8h-716.9c-49.4 0-89.6 40.2-89.6 89.6v466c0 49.4 40.2 89.6 89.6 89.6h147.3l14.5 58.1c14.9 54.3 47.4 85.3 89.1 85.3h215.1c43.4 0 76.7-32 89.2-85.6l14.4-57.8h43.9c9.9 0 17.9-8 17.9-17.9s-8-17.9-17.9-17.9h-71.9l-21.3 85.2c-5.1 21.9-18.8 58.1-54.3 58.1h-215.1c-33.3 0-48.4-36.7-54.4-58.5l-21.2-84.9h-175.3c-29.6 0-53.8-24.1-53.8-53.8v-465.9c0-29.6 24.1-53.8 53.8-53.8h716.8c29.6 0 53.8 24.1 53.8 53.8v466c0 29.6-24.1 53.8-53.8 53.8h-34.7c-9.9 0-17.9 8-17.9 17.9 0 9.9 8 17.9 17.9 17.9h34.7c49.4 0 89.6-40.2 89.6-89.6v-465.9c0.1-49.5-40.1-89.7-89.5-89.7z"  horiz-adv-x="1024" />

    
    <glyph glyph-name="libao" unicode="&#58869;" d="M779.212 646.11c-17.303 0-54.1-5.66-66.542 2.08h-2.079v2.08c19.915 13.135 33.581 35.018 49.908 51.987 0.295 58.293-67.461 99.73-101.894 126.848-23.607-2.145-32.887-18.329-45.748-31.192l-68.624-68.623c-9.545-9.544-21.593-17.65-29.112-29.113-12.73 4.656-20.255 18.176-29.113 27.034-21.513 21.512-44.832 41.057-66.543 62.384-15.917 15.634-25.989 33.595-51.987 39.51-5.175-4.03-13.249-4.448-18.716-8.318-17.143-12.137-30.54-33.255-45.748-47.828-7.043-6.749-17.048-10.852-22.875-18.716-7.28-9.825-9.303-23.02-16.636-33.271-0.073-28.744 32.42-59.47 49.908-70.703l-2.079-4.16H68.031v-226.662c14.615 0.162 34.558 1.72 45.749-2.08v-328.558c0-56.138-5.426-109.68 27.033-133.086 34.177-24.65 137.034-14.557 195.472-14.557h380.544c48.543 0 124.154-9.516 155.96 10.396 19.892 12.456 20.34 29.697 33.273 47.828V288.44c0 33.11-6.476 104.997 2.08 131.008h47.825V646.111H779.212zM367.476 752.165c11.36-4.097 17.163-15.083 24.954-22.874l76.94-74.86-6.237-8.32h-56.146c-23.565 22.874-47.138 45.75-70.702 68.624 3.479 16.971 22.525 24.606 31.19 37.43zM99.223 450.64V614.918h368.068v-2.08h2.08v-112.29c0-15.895 2.036-37.49-2.08-49.908H99.223zM467.29-29.72c-98.601 0.064-202.166-0.27-297.365 2.08-8.39 8.028-19.987 11.323-24.954 22.874-7.683 17.865-2.08 92.542-2.08 118.53V419.448h324.4c1.34-3.59 0.405-2.036 2.079-4.16v-305.683c0-34.925 6.95-111.862-2.08-139.326z m116.451 711.182c23.476 23.475 47.861 46.656 70.703 70.702l35.35-33.27c-23.563-24.26-47.136-48.525-70.701-72.783-20.05-0.255-48.994-2.853-62.384 4.16 3.032 14.654 17.974 22.133 27.032 31.19z m274.492-704.944c-18.526-11.56-61.248-6.244-89.418-6.239H556.709V382.016c0 10.587-2.22 28.398 2.08 35.352 5.416 3.212 63.32 0 79.019 0h160.12c23.565-0.002 57.303-4.32 76.94 2.08l2.08-4.16c1.181-1.228 0-17.215 0-24.953v-320.24c0.008-38.585 5.086-78.721-18.715-93.577z m66.545 474.122h-368.07V614.918h368.07V450.64z"  horiz-adv-x="1024" />

    
    <glyph glyph-name="sanjiaoxing2" unicode="&#58924;" d="M512 51.2l494.933 665.6h-989.867l247.467-332.801z"  horiz-adv-x="1024" />

    
    <glyph glyph-name="xiangzuofanhui" unicode="&#58926;" d="M384 676.266667h268.8c169.661867 0 307.2-137.538133 307.2-307.2v-125.866667c0-169.661867-137.538133-307.2-307.2-307.2H162.133333c-18.8512 0-34.133333 15.282133-34.133333 34.133333 0 18.8512 15.282133 34.133333 34.133333 34.133334h490.666667c131.959467 0 238.933333 106.973867 238.933333 238.933333V369.066667c0 131.959467-106.973867 238.933333-238.933333 238.933333H384v-95.732267l-0.315733-0.176C383.317333 482.523733 359.2 458.666667 329.504 458.666667c-11.995733 0-23.080533 3.892267-32.0576 10.481066L95.713067 595.182933C77.003733 603.7088 64 622.5536 64 644.430933c0 21.8208 12.9344 40.624 31.565867 49.181867l0.0832 3.015467L303.666133 826.589867l0.946134-0.624C312.064 829.821867 320.530133 832 329.504 832c29.925333 0 54.184533-24.224 54.184533-54.106667 0-1.341867-0.049067-2.673067-0.145066-3.991466l0.456533-0.301867V676.266667z"  horiz-adv-x="1024" />

    
    <glyph glyph-name="xiangyoufanhui" unicode="&#58927;" d="M640 676.266667H371.2C201.538133 676.266667 64 538.728533 64 369.066667v-125.866667c0-169.661867 137.538133-307.2 307.2-307.2h490.666667c18.8512 0 34.133333 15.282133 34.133333 34.133333 0 18.8512-15.282133 34.133333-34.133333 34.133334H371.2c-131.959467 0-238.933333 106.973867-238.933333 238.933333V369.066667c0 131.959467 106.973867 238.933333 238.933333 238.933333h268.8v-95.732267l0.315733-0.176C640.682667 482.523733 664.8 458.666667 694.496 458.666667c11.995733 0 23.080533 3.892267 32.0576 10.481066l201.733333 126.0352c18.709333 8.525867 31.713067 27.370667 31.713067 49.248 0 21.8208-12.9344 40.624-31.565867 49.181867l-0.0832 3.015467L720.333867 826.589867l-0.946134-0.624C711.936 829.821867 703.469867 832 694.496 832c-29.925333 0-54.184533-24.224-54.184533-54.106667 0-1.341867 0.049067-2.673067 0.145066-3.991466l-0.456533-0.301867V676.266667z"  horiz-adv-x="1024" />

    
    <glyph glyph-name="tuku" unicode="&#58928;" d="M875.5 744.6H149.2c-46.3 0-83.8-37.5-83.8-83.8v-558.7c0-46.3 37.5-83.8 83.8-83.8h726.3c46.3 0 83.8 37.5 83.8 83.8V660.8c0 46.3-37.5 83.8-83.8 83.8z m14-557L714.1 421.4s-10.2 18.9-46 18.9c-40.6 0-52.8-18.3-52.8-18.3L461.7 184.9s-8.4-15.9-28.8-15.9c-21.5 0-31.7 15.9-31.7 15.9l-80.8 92.3s-20.7 27.4-47.6 27.4c-26.8 0-49-30.3-49-30.3l-88.6-110.4v482c0 15.4 12.5 28 28 28h698.4c15.4 0 28-12.5 28-28l-0.1-458.3zM470.3 493.2c0-54.7-44.3-99-98.9-99-54.6 0-99 44.3-99 99 0 54.6 44.3 98.9 99 98.9 54.6 0 98.9-44.3 98.9-98.9z"  horiz-adv-x="1024" />

    
    <glyph glyph-name="wenhao" unicode="&#58955;" d="M511.761146 895.146951C229.231323 895.146951 0.17061 666.086238 0.17061 383.522293s229.060713-511.590536 511.590536-511.590537c282.563945 0 511.65878 229.026591 511.658781 511.590537S794.325092 895.146951 511.761146 895.146951z m0-933.747418c-233.087104 0-422.054515 189.035655-422.054515 422.12276 0 233.155348 188.967411 422.088637 422.054515 422.088637s422.122759-188.933289 422.122759-422.088637c0-233.087104-189.035655-422.122759-422.122759-422.12276zM494.802532 156.918361a55.618794 55.618794 0 0 1-40.775741-16.344419c-10.919027-10.953149-16.37854-24.567811-16.37854-40.809863s5.493635-29.822592 16.37854-40.775742c10.919027-10.884905 24.533689-16.344419 40.775741-16.344418s29.856714 5.459513 40.775742 16.344418c10.919027 10.953149 16.37854 24.533689 16.37854 40.775742 0 16.310297-5.459513 29.856714-16.37854 40.809863a55.618794 55.618794 0 0 1-40.775742 16.344419zM634.77081 646.943819a140.582473 140.582473 0 0 1-53.366745 29.856714 209.167611 209.167611 0 0 1-67.254382 8.803466c-24.670177-0.545951-47.770743-4.333489-69.335821-11.362613a195.962413 195.962413 0 0 1-56.301233-28.150616 133.075641 133.075641 0 0 1-37.841253-42.447718 108.883172 108.883172 0 0 1-13.887637-54.219793c0-14.024125 3.65105-24.670177 10.953149-31.938154 7.267977-7.302099 19.313029-11.226125 36.135155-11.772076 13.444052 0 26.615128 3.65105 39.479107 10.953149 12.898101 7.233855 19.347151 18.187004 19.347151 32.757081 0 14.570077 6.995002 25.25025 20.985005 31.972276a119.017394 119.017394 0 0 0 47.90723 10.953149c17.948151 0.545951 33.371276-3.241586 46.235255-11.362613 12.863979-8.121026 19.313029-23.714762 19.313029-46.644718 0-9.554149-0.784805-18.11876-2.525025-25.659714a94.005998 94.005998 0 0 0-8.35988-22.691103 137.477374 137.477374 0 0 0-16.412662-23.953615c-6.995002-8.394002-15.525492-17.641053-25.625592-27.741153a261.544818 261.544818 0 0 1-35.316227-41.62879 300.341486 300.341486 0 0 1-40.775742-86.533289c-3.65105-13.136954-5.459513-24.260713-5.459513-33.200667 0-17.436321 5.015928-29.822592 15.116028-37.431789 10.065978-7.575075 22.418127-11.328491 36.988204-11.328491 14.535955 0 26.888104 4.026391 36.954082 12.147418s15.15015 20.336688 15.150149 36.57874c0 10.611929 0.716561 20.473176 2.115562 29.379007a84.622459 84.622459 0 0 0 9.656514 27.33169c5.05005 9.247051 12.318027 19.586005 21.872176 31.085105a512.511829 512.511829 0 0 0 38.694302 40.775741c24.055981 22.998201 40.195668 44.392669 48.248451 64.319894a178.764945 178.764945 0 0 1 13.102832 63.466844c0.545951 25.762079-3.207464 48.41906-11.396734 68.073309a136.283106 136.283106 0 0 1-34.394935 49.613329z"  horiz-adv-x="1024" />

    
    <glyph glyph-name="wenzi" unicode="&#58929;" d="M170.666667 810.666667h682.666666a85.333333 85.333333 0 0 0 85.333334-85.333334v-682.666666a85.333333 85.333333 0 0 0-85.333334-85.333334H170.666667a85.333333 85.333333 0 0 0-85.333334 85.333334V725.333333a85.333333 85.333333 0 0 0 85.333334 85.333334z m0.682666-44.714667a42.666667 42.666667 0 0 1-42.666666-42.666667v-682.069333a42.666667 42.666667 0 0 1 42.666666-42.666667H853.76a42.666667 42.666667 0 0 1 42.666667 42.666667V723.285333a42.666667 42.666667 0 0 1-42.666667 42.666667H171.349333zM724.992 85.461333L661.034667 256h-298.666667l-63.957333-170.538667h-42.24L494.976 682.666667h33.962667l238.890666-597.205334h-42.88zM511.701333 640l-128-341.290667h256l-128 341.290667z"  horiz-adv-x="1024" />

    
    <glyph glyph-name="collection" unicode="&#58676;" d="M818.356728 739.158174c42.486122-47.581999 68.528645-110.158798 68.528645-178.969011 0-74.314621-34.97797-144.848033-78.822788-190.294207-33.392996-34.613467-219.827155-220.404627-308.393236-308.585727-18.733006-18.653143-45.741053-23.542195-69.022157-15.094117l33.382757-33.483098c25.753788-25.831603 67.452541-25.927848 93.30155-0.190443 88.567104 88.182124 275.00024 273.972259 308.393236 308.585727 43.844817 45.447198 78.822788 115.98061 78.822788 190.294207-0.001024 96.048635-50.477547 180.114739-126.190795 227.736669zM236.120243 665.965732c-47.037292-27.207705-76.243621-77.829619-76.243621-132.094518 0-18.028573 3.115683-35.672165 9.253875-52.434191a9.611212 9.611212 0 0 1 9.028621-6.307134 9.444318 9.444318 0 0 1 3.303054 0.590782c4.992465 1.820468 7.546035 7.33921 5.724543 12.32246-5.368231 14.640536-8.089718 30.060249-8.089718 45.82706 0 47.431488 25.527509 91.672549 66.633433 115.464572 4.598269 2.655959 6.175052 8.531013 3.509879 13.129281-2.683603 4.626938-8.614971 6.157646-13.120066 3.501688zM675.434623 793.996448c-59.40685 0-116.393236-18.441199-164.894683-53.31678-60.28944 43.443454-134.243653 61.172029-208.385237 50.012702-76.094133-11.506423-145.054858-55.418817-189.202746-120.49492-44.916825-66.202377-60.439951-148.208425-42.589534-224.996752C82.149391 394.475371 109.384741 349.10803599999997 156.047291 302.42603199999996 201.903019 256.58054300000003 371.396996 86.58895800000005 454.491433 3.2313820000000533c15.503672-15.55077 35.888205-23.32206 56.291167-23.32206 20.290335 0 40.580671 7.695522 56.047483 23.096805 124.014014 123.488761 278.21012 277.309101 308.579583 308.786408 51.711328 53.58811 82.588638 128.218088 82.588638 199.62897 0.001024 155.810773-126.753932 282.574944-282.563681 282.574943z m180.605181-463.527221c-23.57496-24.42888-133.023181-133.952869-308.204842-308.392212-20.49716-20.431632-53.813365-20.355864-74.273665 0.150512-83.132321 83.37703-252.626298 253.387045-298.482026 299.232533-43.546867 43.546867-67.759707 83.59307-78.515622 129.84197-16.161006 69.496216-2.065177 143.769882 38.647575 203.786968 39.96122 58.881597 102.259523 98.608348 170.958133 108.988497a262.31942 262.31942 0 0 0 39.285456 2.975411c53.55125 0 105.487833-16.582847 149.353129-48.201449a26.935351 26.935351 0 0 1 31.571504 0c43.790551 31.55205 95.332939 48.230118 149.05313 48.230118 140.963412 0 255.648807-114.685395 255.648807-255.658022 0.001024-63.64164-28.754795-132.97813-75.041579-180.954326z"  horiz-adv-x="1024" />

    
    </font>
</defs>
</svg>
